<?xml version="1.0" encoding="UTF-8" standalone="no"?>
<!-- Created with Inkscape (http://www.inkscape.org/) -->

<svg
   xmlns:dc="http://purl.org/dc/elements/1.1/"
   xmlns:cc="http://creativecommons.org/ns#"
   xmlns:rdf="http://www.w3.org/1999/02/22-rdf-syntax-ns#"
   xmlns:svg="http://www.w3.org/2000/svg"
   xmlns="http://www.w3.org/2000/svg"
   xmlns:sodipodi="http://sodipodi.sourceforge.net/DTD/sodipodi-0.dtd"
   xmlns:inkscape="http://www.inkscape.org/namespaces/inkscape"
   width="2000"
   height="1350"
   viewBox="0 0 529.16666 357.18751"
   version="1.1"
   id="svg1893"
   inkscape:version="0.92.4 (5da689c313, 2019-01-14)"
   sodipodi:docname="CISE_Second_floor.svg"
   inkscape:export-filename="C:\Users\fwang\OneDrive\Documents\SH 2020 Graphic Design\Event Maps\CISE\png\CISE_Second_floor.png"
   inkscape:export-xdpi="96"
   inkscape:export-ydpi="96">
  <defs
     id="defs1887" />
  <sodipodi:namedview
     id="base"
     pagecolor="#ffffff"
     bordercolor="#666666"
     borderopacity="1.0"
     inkscape:pageopacity="0.0"
     inkscape:pageshadow="2"
     inkscape:zoom="0.49497475"
     inkscape:cx="1050.3948"
     inkscape:cy="756.39805"
     inkscape:document-units="mm"
     inkscape:current-layer="layer1"
     showgrid="false"
     showguides="true"
     inkscape:window-width="1920"
     inkscape:window-height="1001"
     inkscape:window-x="-9"
     inkscape:window-y="-9"
     inkscape:window-maximized="1"
     inkscape:guide-bbox="true"
     inkscape:snap-global="false"
     units="px" />
  <metadata
     id="metadata1890">
    <rdf:RDF>
      <cc:Work
         rdf:about="">
        <dc:format>image/svg+xml</dc:format>
        <dc:type
           rdf:resource="http://purl.org/dc/dcmitype/StillImage" />
        <dc:title />
      </cc:Work>
    </rdf:RDF>
  </metadata>
  <g
     inkscape:label="Layer 1"
     inkscape:groupmode="layer"
     id="layer1"
     transform="translate(0,60.187513)">
    <rect
       style="opacity:1;fill:#727272;fill-opacity:1;stroke:#d3ffff;stroke-width:0;stroke-miterlimit:4;stroke-dasharray:none;stroke-dashoffset:0;stroke-opacity:1;paint-order:fill markers stroke"
       id="rect1786"
       width="19.148016"
       height="36.839912"
       x="420.80054"
       y="106.27306" />
    <rect
       y="141.66431"
       x="420.80054"
       height="3.2285249"
       width="23.557962"
       id="rect1784"
       style="opacity:1;fill:#727272;fill-opacity:1;stroke:#d3ffff;stroke-width:0;stroke-miterlimit:4;stroke-dasharray:none;stroke-dashoffset:0;stroke-opacity:1;paint-order:fill markers stroke" />
    <g
       id="g2924"
       transform="matrix(1.0790555,0,0,1,-149.86856,-40.562204)"
       style="stroke-width:0.96267152">
      <path
         inkscape:connector-curvature="0"
         id="path2900"
         d="m 108.72195,72.969424 h 10.7576"
         style="fill:none;stroke:#c1c1c1;stroke-width:0.25470683px;stroke-linecap:butt;stroke-linejoin:miter;stroke-opacity:1" />
      <path
         style="fill:none;stroke:#c1c1c1;stroke-width:0.25470683px;stroke-linecap:butt;stroke-linejoin:miter;stroke-opacity:1"
         d="m 108.72195,74.216746 h 10.7576"
         id="path2902"
         inkscape:connector-curvature="0" />
      <path
         inkscape:connector-curvature="0"
         id="path2904"
         d="m 108.72195,75.473518 h 10.7576"
         style="fill:none;stroke:#c1c1c1;stroke-width:0.25470683px;stroke-linecap:butt;stroke-linejoin:miter;stroke-opacity:1" />
      <path
         style="fill:none;stroke:#c1c1c1;stroke-width:0.25470683px;stroke-linecap:butt;stroke-linejoin:miter;stroke-opacity:1"
         d="m 108.72195,71.958337 h 10.7576"
         id="path2906"
         inkscape:connector-curvature="0" />
      <path
         inkscape:connector-curvature="0"
         id="path2908"
         d="m 108.72195,70.711015 h 10.7576"
         style="fill:none;stroke:#c1c1c1;stroke-width:0.25470683px;stroke-linecap:butt;stroke-linejoin:miter;stroke-opacity:1" />
      <path
         style="fill:none;stroke:#c1c1c1;stroke-width:0.25470683px;stroke-linecap:butt;stroke-linejoin:miter;stroke-opacity:1"
         d="m 108.72195,69.652681 h 10.7576"
         id="path2910"
         inkscape:connector-curvature="0" />
      <path
         inkscape:connector-curvature="0"
         id="path2912"
         d="m 108.72195,68.594347 h 10.7576"
         style="fill:none;stroke:#c1c1c1;stroke-width:0.25470683px;stroke-linecap:butt;stroke-linejoin:miter;stroke-opacity:1" />
      <path
         style="fill:none;stroke:#c1c1c1;stroke-width:0.25470683px;stroke-linecap:butt;stroke-linejoin:miter;stroke-opacity:1"
         d="m 108.72195,67.536013 h 10.7576"
         id="path2914"
         inkscape:connector-curvature="0" />
      <path
         inkscape:connector-curvature="0"
         id="path2916"
         d="m 108.72195,66.477679 h 10.7576"
         style="fill:none;stroke:#c1c1c1;stroke-width:0.25470683px;stroke-linecap:butt;stroke-linejoin:miter;stroke-opacity:1" />
      <path
         style="fill:none;stroke:#c1c1c1;stroke-width:0.25470683px;stroke-linecap:butt;stroke-linejoin:miter;stroke-opacity:1"
         d="m 108.72195,76.72084 h 10.7576"
         id="path2918"
         inkscape:connector-curvature="0" />
      <path
         inkscape:connector-curvature="0"
         id="path2920"
         d="m 108.72195,77.968162 h 10.7576"
         style="fill:none;stroke:#c1c1c1;stroke-width:0.25470683px;stroke-linecap:butt;stroke-linejoin:miter;stroke-opacity:1" />
      <path
         style="fill:none;stroke:#c1c1c1;stroke-width:0.25470683px;stroke-linecap:butt;stroke-linejoin:miter;stroke-opacity:1"
         d="m 108.72195,79.177687 h 10.7576"
         id="path2922"
         inkscape:connector-curvature="0" />
    </g>
    <rect
       style="opacity:1;fill:#727272;fill-opacity:1;stroke:#502d16;stroke-width:0;stroke-miterlimit:4;stroke-dasharray:none;stroke-dashoffset:0;stroke-opacity:1;paint-order:fill markers stroke"
       id="rect2623"
       width="83.253716"
       height="120.73913"
       x="138.58812"
       y="65.757385" />
    <rect
       style="opacity:1;fill:#727272;fill-opacity:1;stroke:#502d16;stroke-width:0;stroke-miterlimit:4;stroke-dasharray:none;stroke-dashoffset:0;stroke-opacity:1;paint-order:fill markers stroke"
       id="rect2453"
       width="338.90167"
       height="116.90594"
       x="6.3905215"
       y="-45.292515" />
    <rect
       style="opacity:1;fill:#727272;fill-opacity:1;stroke:#502d16;stroke-width:0;stroke-miterlimit:4;stroke-dasharray:none;stroke-dashoffset:0;stroke-opacity:1;paint-order:fill markers stroke"
       id="rect2455"
       width="140.64836"
       height="225.36211"
       x="6.4178548"
       y="65.968239" />
    <rect
       style="opacity:1;fill:#727272;fill-opacity:1;stroke:#502d16;stroke-width:0;stroke-miterlimit:4;stroke-dasharray:none;stroke-dashoffset:0;stroke-opacity:1;paint-order:fill markers stroke"
       id="rect2457"
       width="101.54522"
       height="86.172745"
       x="421.00259"
       y="8.0246334" />
    <rect
       style="opacity:1;fill:#727272;fill-opacity:1;stroke:#502d16;stroke-width:0;stroke-miterlimit:4;stroke-dasharray:none;stroke-dashoffset:0;stroke-opacity:1;paint-order:fill markers stroke"
       id="rect2459"
       width="32.859806"
       height="32.702076"
       x="312.45062"
       y="61.461781" />
    <rect
       style="opacity:1;fill:#727272;fill-opacity:1;stroke:#502d16;stroke-width:0;stroke-miterlimit:4;stroke-dasharray:none;stroke-dashoffset:0;stroke-opacity:1;paint-order:fill markers stroke"
       id="rect2461"
       width="88.604248"
       height="17.296085"
       x="332.57428"
       y="76.904213" />
    <rect
       style="opacity:1;fill:#c1c1c1;fill-opacity:1;stroke:#502d16;stroke-width:0;stroke-miterlimit:4;stroke-dasharray:none;stroke-dashoffset:0;stroke-opacity:1;paint-order:fill markers stroke"
       id="rect2713"
       width="59.891701"
       height="49.697369"
       x="138.22775"
       y="47.31464" />
    <rect
       y="27.994343"
       x="150.63423"
       height="40.352566"
       width="190.39297"
       id="rect2717"
       style="opacity:1;fill:#c1c1c1;fill-opacity:1;stroke:#502d16;stroke-width:0;stroke-miterlimit:4;stroke-dasharray:none;stroke-dashoffset:0;stroke-opacity:1;paint-order:fill markers stroke" />
    <rect
       style="opacity:1;fill:#c1c1c1;fill-opacity:1;stroke:#502d16;stroke-width:0;stroke-miterlimit:4;stroke-dasharray:none;stroke-dashoffset:0;stroke-opacity:1;paint-order:fill markers stroke"
       id="rect2711"
       width="203.28595"
       height="40.352566"
       x="11.572593"
       y="25.615664" />
    <rect
       style="opacity:1;fill:#c1c1c1;fill-opacity:1;stroke:#502d16;stroke-width:0;stroke-miterlimit:4;stroke-dasharray:none;stroke-dashoffset:0;stroke-opacity:1;paint-order:fill markers stroke"
       id="rect2719"
       width="87.703194"
       height="76.784203"
       x="428.15665"
       y="14.056453" />
    <rect
       style="opacity:1;fill:#c1c1c1;fill-opacity:1;stroke:#502d16;stroke-width:0;stroke-miterlimit:4;stroke-dasharray:none;stroke-dashoffset:0;stroke-opacity:1;paint-order:fill markers stroke"
       id="rect2749"
       width="99.819496"
       height="10.406713"
       x="337.25711"
       y="80.43396" />
    <rect
       style="opacity:1;fill:#c1c1c1;fill-opacity:1;stroke:#502d16;stroke-width:0;stroke-miterlimit:4;stroke-dasharray:none;stroke-dashoffset:0;stroke-opacity:1;paint-order:fill markers stroke"
       id="rect2753"
       width="25.018578"
       height="29.308704"
       x="315.96136"
       y="61.55069" />
    <rect
       style="opacity:1;fill:#8093aa;fill-opacity:1;stroke:#c1c1c1;stroke-width:2;stroke-miterlimit:4;stroke-dasharray:none;stroke-dashoffset:0;stroke-opacity:1;paint-order:fill markers stroke"
       id="rect2541"
       width="132.76505"
       height="88.606125"
       x="12.504333"
       y="-40.688908" />
    <rect
       style="opacity:1;fill:#8093aa;fill-opacity:1;stroke:#c1c1c1;stroke-width:2;stroke-miterlimit:4;stroke-dasharray:none;stroke-dashoffset:0;stroke-opacity:1;paint-order:fill markers stroke"
       id="rect2558"
       width="128.3264"
       height="220.02768"
       x="12.623221"
       y="65.968239" />
    <rect
       style="opacity:1;fill:#8093aa;fill-opacity:1;stroke:#c1c1c1;stroke-width:2;stroke-miterlimit:4;stroke-dasharray:none;stroke-dashoffset:0;stroke-opacity:1;paint-order:fill markers stroke"
       id="rect2575"
       width="69.236504"
       height="87.961113"
       x="198.67499"
       y="-40.622547" />
    <rect
       style="opacity:1;fill:#8093aa;fill-opacity:1;stroke:#c1c1c1;stroke-width:2;stroke-miterlimit:4;stroke-dasharray:none;stroke-dashoffset:0;stroke-opacity:1;paint-order:fill markers stroke"
       id="rect2577"
       width="72.182426"
       height="87.961136"
       x="267.9115"
       y="-40.622547" />
    <path
       style="fill:#8093aa;fill-opacity:1;stroke:#c1c1c1;stroke-width:2;stroke-linecap:butt;stroke-linejoin:miter;stroke-miterlimit:4;stroke-dasharray:none;stroke-opacity:1"
       d="m 141.28881,88.588451 53.36812,-25.273467 h 20.7532 l 0.21239,117.022486 h -74.33371 z"
       id="path2642"
       inkscape:connector-curvature="0" />
    <path
       style="fill:#9ee8d1;fill-opacity:1;stroke:#c1c1c1;stroke-width:1.99999976;stroke-linecap:butt;stroke-linejoin:miter;stroke-miterlimit:4;stroke-dasharray:none;stroke-opacity:1"
       d="m 429.40121,15.401604 h 28.16657 v 56.5542 L 436.2337,71.724463 v 9.338773 l -6.69306,-2.2e-5 z"
       id="path2644"
       inkscape:connector-curvature="0" />
    <path
       style="fill:#9ee8d1;fill-opacity:1;stroke:#c1c1c1;stroke-width:1.99999988;stroke-linecap:butt;stroke-linejoin:miter;stroke-miterlimit:4;stroke-dasharray:none;stroke-opacity:1"
       d="m 467.44507,15.334778 h 47.14533 v 65.743498 l -24.81334,-0.01538 v -9.310468 l -22.33199,0.193646 z"
       id="path2646"
       inkscape:connector-curvature="0" />
    <g
       aria-label="E222"
       style="font-style:normal;font-variant:normal;font-weight:normal;font-stretch:normal;font-size:35.68016434px;line-height:1.25;font-family:sans-serif;-inkscape-font-specification:sans-serif;font-variant-ligatures:normal;font-variant-caps:normal;font-variant-numeric:normal;font-feature-settings:normal;text-align:start;letter-spacing:0px;word-spacing:0px;writing-mode:lr-tb;text-anchor:start;fill:#ffe164;fill-opacity:1;stroke:none;stroke-width:0.26458332"
       id="text2747">
      <path
         d="M 61.981751,12.44127 H 50.587793 V -4.8529225 h 11.393958 v 2.0441758 h -9.09426 v 4.7387714 h 9.09426 v 2.0441758 h -9.09426 v 6.4228935 h 9.09426 z"
         style="font-size:23.78677368px;fill:#ffe164;fill-opacity:1;stroke-width:0.26458332"
         id="path1640" />
      <path
         d="M 76.894942,12.44127 H 65.18739 v -2.427459 q 1.219536,-1.0453172 2.439073,-2.0906344 1.231152,-1.0453172 2.288083,-2.0790197 2.23001,-2.1603223 3.05465,-3.4263175 0.824639,-1.27761 0.824639,-2.75266867 0,-1.34729773 -0.894327,-2.10224903 -0.882713,-0.766566 -2.473918,-0.766566 -1.056932,0 -2.288083,0.3716684 -1.231151,0.3716683 -2.404229,1.1382343 h -0.116147 v -2.4390735 q 0.824639,-0.4065123 2.195166,-0.7433367 1.382142,-0.3368244 2.671367,-0.3368244 2.659751,0 4.169654,1.2892245 1.509902,1.2776099 1.509902,3.47277607 0,0.98724403 -0.255522,1.84672703 -0.243907,0.8478684 -0.731722,1.6144344 -0.45297,0.7201074 -1.068546,1.4169855 -0.603961,0.6968782 -1.475059,1.5447466 -1.242766,1.2195367 -2.566834,2.3693856 -1.324069,1.1382343 -2.473918,2.1138635 h 9.303323 z"
         style="font-size:23.78677368px;fill:#ffe164;fill-opacity:1;stroke-width:0.26458332"
         id="path1642" />
      <path
         d="M 92.040426,12.44127 H 80.332874 v -2.427459 q 1.219536,-1.0453172 2.439073,-2.0906344 1.231152,-1.0453172 2.288083,-2.0790197 2.23001,-2.1603223 3.05465,-3.4263175 0.824639,-1.27761 0.824639,-2.75266867 0,-1.34729773 -0.894327,-2.10224903 -0.882713,-0.766566 -2.473918,-0.766566 -1.056932,0 -2.288083,0.3716684 -1.231151,0.3716683 -2.404229,1.1382343 h -0.116147 v -2.4390735 q 0.824639,-0.4065123 2.195166,-0.7433367 1.382142,-0.3368244 2.671366,-0.3368244 2.659752,0 4.169655,1.2892245 1.509902,1.2776099 1.509902,3.47277607 0,0.98724403 -0.255522,1.84672703 -0.243907,0.8478684 -0.731722,1.6144344 -0.452971,0.7201074 -1.068546,1.4169855 -0.603961,0.6968782 -1.475059,1.5447466 -1.242766,1.2195367 -2.566834,2.3693856 -1.324069,1.1382343 -2.473918,2.1138635 h 9.303323 z"
         style="font-size:23.78677368px;fill:#ffe164;fill-opacity:1;stroke-width:0.26458332"
         id="path1644" />
      <path
         d="M 107.18591,12.44127 H 95.478359 v -2.427459 q 1.219536,-1.0453172 2.439073,-2.0906344 1.231151,-1.0453172 2.288088,-2.0790197 2.23001,-2.1603223 3.05464,-3.4263175 0.82464,-1.27761 0.82464,-2.75266867 0,-1.34729773 -0.89432,-2.10224903 -0.88272,-0.766566 -2.47392,-0.766566 -1.056933,0 -2.288084,0.3716684 -1.231151,0.3716683 -2.40423,1.1382343 H 95.9081 v -2.4390735 q 0.824639,-0.4065123 2.195166,-0.7433367 1.382142,-0.3368244 2.671364,-0.3368244 2.65975,0 4.16966,1.2892245 1.5099,1.2776099 1.5099,3.47277607 0,0.98724403 -0.25552,1.84672703 -0.24391,0.8478684 -0.73172,1.6144344 -0.45298,0.7201074 -1.06855,1.4169855 -0.60396,0.6968782 -1.47506,1.5447466 -1.24277,1.2195367 -2.56683,2.3693856 -1.324073,1.1382343 -2.473922,2.1138635 h 9.303322 z"
         style="font-size:23.78677368px;fill:#ffe164;fill-opacity:1;stroke-width:0.26458332"
         id="path1646" />
    </g>
    <g
       aria-label="E231"
       style="font-style:normal;font-variant:normal;font-weight:normal;font-stretch:normal;font-size:35.68016434px;line-height:1.25;font-family:sans-serif;-inkscape-font-specification:sans-serif;font-variant-ligatures:normal;font-variant-caps:normal;font-variant-numeric:normal;font-feature-settings:normal;text-align:start;letter-spacing:0px;word-spacing:0px;writing-mode:lr-tb;text-anchor:start;fill:#ffe164;fill-opacity:1;stroke:none;stroke-width:0.26458332"
       id="text2751">
      <path
         d="M 59.974033,184.62917 H 48.580076 v -17.2942 h 11.393957 v 2.04418 h -9.094259 v 4.73877 h 9.094259 v 2.04418 h -9.094259 v 6.42289 h 9.094259 z"
         style="font-size:23.78677368px;fill:#ffe164;fill-opacity:1;stroke-width:0.26458332"
         id="path1649" />
      <path
         d="M 74.887225,184.62917 H 63.179673 v -2.42746 q 1.219536,-1.04532 2.439073,-2.09064 1.231151,-1.04531 2.288083,-2.07902 2.23001,-2.16032 3.054649,-3.42631 0.82464,-1.27761 0.82464,-2.75267 0,-1.3473 -0.894327,-2.10225 -0.882713,-0.76657 -2.473918,-0.76657 -1.056932,0 -2.288083,0.37167 -1.231151,0.37167 -2.40423,1.13823 h -0.116146 v -2.43907 q 0.824639,-0.40651 2.195166,-0.74334 1.382142,-0.33682 2.671366,-0.33682 2.659752,0 4.169655,1.28922 1.509902,1.27761 1.509902,3.47278 0,0.98724 -0.255522,1.84673 -0.243907,0.84787 -0.731722,1.61443 -0.452971,0.72011 -1.068546,1.41699 -0.603961,0.69688 -1.475059,1.54474 -1.242766,1.21954 -2.566834,2.36939 -1.324069,1.13823 -2.473918,2.11386 h 9.303323 z"
         style="font-size:23.78677368px;fill:#ffe164;fill-opacity:1;stroke-width:0.26458332"
         id="path1651" />
      <path
         d="m 88.511192,176.30147 q 0.557502,0.49943 0.917556,1.25438 0.360054,0.75495 0.360054,1.95126 0,1.18469 -0.429742,2.17194 -0.429741,0.98724 -1.207922,1.71896 -0.871097,0.81303 -2.05579,1.20793 -1.173078,0.38328 -2.578449,0.38328 -1.440215,0 -2.833971,-0.34844 -1.393757,-0.33682 -2.288084,-0.74334 v -2.42746 h 0.17422 q 0.987244,0.65042 2.322927,1.08017 1.335683,0.42974 2.578449,0.42974 0.731722,0 1.556361,-0.24391 0.824639,-0.24391 1.335683,-0.72011 0.534274,-0.51104 0.789796,-1.12662 0.267136,-0.61557 0.267136,-1.55636 0,-0.92917 -0.30198,-1.53313 -0.290366,-0.61558 -0.813025,-0.96401 -0.522658,-0.36006 -1.265995,-0.48782 -0.743337,-0.13938 -1.60282,-0.13938 h -1.045317 v -1.92802 h 0.813024 q 1.765425,0 2.810742,-0.73173 1.056932,-0.74333 1.056932,-2.16032 0,-0.62719 -0.267136,-1.09177 -0.267137,-0.4762 -0.743337,-0.77819 -0.49943,-0.30198 -1.068547,-0.41812 -0.569117,-0.11615 -1.289224,-0.11615 -1.103391,0 -2.346157,0.3949 -1.242766,0.3949 -2.346156,1.115 h -0.116146 v -2.42745 q 0.824639,-0.40652 2.195166,-0.74334 1.382141,-0.34844 2.671366,-0.34844 1.265995,0 2.23001,0.23229 0.964015,0.23229 1.742195,0.74334 0.836254,0.5575 1.265996,1.3473 0.429741,0.78979 0.429741,1.84672 0,1.44022 -1.022088,2.52038 -1.010473,1.06855 -2.392615,1.3473 v 0.1626 q 0.557503,0.0929 1.27761,0.3949 0.720108,0.29037 1.219537,0.73172 z"
         style="font-size:23.78677368px;fill:#ffe164;fill-opacity:1;stroke-width:0.26458332"
         id="path1653" />
      <path
         d="m 104.19095,184.62917 h -9.361396 v -1.76543 h 3.600537 v -11.59141 h -3.600537 v -1.57959 q 0.731722,0 1.567976,-0.11614 0.836253,-0.12776 1.265995,-0.36006 0.534273,-0.29036 0.836254,-0.73172 0.313595,-0.45297 0.360053,-1.20792 h 1.800268 v 15.58684 h 3.53085 z"
         style="font-size:23.78677368px;fill:#ffe164;fill-opacity:1;stroke-width:0.26458332"
         id="path1655" />
    </g>
    <g
       aria-label="E235"
       style="font-style:normal;font-variant:normal;font-weight:normal;font-stretch:normal;font-size:35.68016434px;line-height:1.25;font-family:sans-serif;-inkscape-font-specification:sans-serif;font-variant-ligatures:normal;font-variant-caps:normal;font-variant-numeric:normal;font-feature-settings:normal;text-align:start;letter-spacing:0px;word-spacing:0px;writing-mode:lr-tb;text-anchor:start;fill:#ffe164;fill-opacity:1;stroke:none;stroke-width:0.26458332"
       id="text2755">
      <path
         d="m 161.62101,130.47333 h -11.39395 v -17.29419 h 11.39395 v 2.04417 h -9.09426 v 4.73877 h 9.09426 v 2.04418 h -9.09426 v 6.42289 h 9.09426 z"
         style="font-size:23.78677368px;fill:#ffe164;fill-opacity:1;stroke-width:0.26458332"
         id="path1658" />
      <path
         d="m 176.53421,130.47333 h -11.70756 v -2.42746 q 1.21954,-1.04532 2.43908,-2.09064 1.23115,-1.04531 2.28808,-2.07902 2.23001,-2.16032 3.05465,-3.42631 0.82464,-1.27761 0.82464,-2.75267 0,-1.3473 -0.89433,-2.10225 -0.88271,-0.76657 -2.47392,-0.76657 -1.05693,0 -2.28808,0.37167 -1.23115,0.37167 -2.40423,1.13824 h -0.11615 v -2.43908 q 0.82464,-0.40651 2.19517,-0.74333 1.38214,-0.33683 2.67137,-0.33683 2.65975,0 4.16965,1.28923 1.5099,1.27761 1.5099,3.47277 0,0.98725 -0.25552,1.84673 -0.24391,0.84787 -0.73172,1.61443 -0.45297,0.72011 -1.06855,1.41699 -0.60396,0.69688 -1.47506,1.54475 -1.24276,1.21953 -2.56683,2.36938 -1.32407,1.13824 -2.47392,2.11386 h 9.30333 z"
         style="font-size:23.78677368px;fill:#ffe164;fill-opacity:1;stroke-width:0.26458332"
         id="path1660" />
      <path
         d="m 190.15817,122.14563 q 0.5575,0.49943 0.91756,1.25438 0.36005,0.75496 0.36005,1.95126 0,1.1847 -0.42974,2.17194 -0.42974,0.98724 -1.20792,1.71897 -0.8711,0.81302 -2.05579,1.20792 -1.17308,0.38328 -2.57845,0.38328 -1.44022,0 -2.83397,-0.34844 -1.39376,-0.33682 -2.28809,-0.74333 v -2.42746 h 0.17422 q 0.98725,0.65042 2.32293,1.08016 1.33568,0.42974 2.57845,0.42974 0.73172,0 1.55636,-0.24391 0.82464,-0.24391 1.33568,-0.72011 0.53428,-0.51104 0.7898,-1.12662 0.26714,-0.61557 0.26714,-1.55636 0,-0.92917 -0.30198,-1.53313 -0.29037,-0.61557 -0.81303,-0.96401 -0.52266,-0.36006 -1.26599,-0.48782 -0.74334,-0.13937 -1.60282,-0.13937 h -1.04532 v -1.92803 h 0.81302 q 1.76543,0 2.81075,-0.73172 1.05693,-0.74334 1.05693,-2.16033 0,-0.62719 -0.26714,-1.09177 -0.26714,-0.4762 -0.74334,-0.77818 -0.49943,-0.30198 -1.06854,-0.41813 -0.56912,-0.11615 -1.28923,-0.11615 -1.10339,0 -2.34615,0.3949 -1.24277,0.3949 -2.34616,1.11501 h -0.11615 v -2.42746 q 0.82464,-0.40651 2.19517,-0.74334 1.38214,-0.34844 2.67137,-0.34844 1.26599,0 2.23001,0.23229 0.96401,0.2323 1.74219,0.74334 0.83626,0.5575 1.266,1.3473 0.42974,0.78979 0.42974,1.84673 0,1.44021 -1.02209,2.52037 -1.01047,1.06855 -2.39261,1.3473 v 0.1626 q 0.5575,0.0929 1.27761,0.3949 0.7201,0.29037 1.21953,0.73172 z"
         style="font-size:23.78677368px;fill:#ffe164;fill-opacity:1;stroke-width:0.26458332"
         id="path1662" />
      <path
         d="m 206.6858,124.97961 q 0,1.20792 -0.44136,2.31131 -0.44135,1.10339 -1.20792,1.85834 -0.83625,0.81302 -1.99772,1.25438 -1.14985,0.42974 -2.67136,0.42974 -1.41699,0 -2.72944,-0.30198 -1.31246,-0.29037 -2.2184,-0.70849 v -2.45069 h 0.16261 q 0.9524,0.60396 2.23001,1.0337 1.27761,0.41813 2.50876,0.41813 0.82464,0 1.5912,-0.23229 0.77818,-0.2323 1.38215,-0.81303 0.51104,-0.49943 0.76656,-1.19631 0.26714,-0.69687 0.26714,-1.61443 0,-0.89433 -0.3136,-1.5099 -0.30198,-0.61558 -0.84787,-0.98725 -0.60396,-0.44135 -1.47505,-0.61557 -0.85949,-0.18584 -1.92803,-0.18584 -1.02209,0 -1.97449,0.13938 -0.94079,0.13938 -1.62605,0.27875 v -8.90842 h 10.40671 v 2.03256 h -8.16509 v 4.59939 q 0.49943,-0.0465 1.02209,-0.0697 0.52266,-0.0232 0.90594,-0.0232 1.40537,0 2.46231,0.2439 1.05693,0.2323 1.93964,0.83626 0.92917,0.6388 1.44021,1.64927 0.51105,1.01048 0.51105,2.532 z"
         style="font-size:23.78677368px;fill:#ffe164;fill-opacity:1;stroke-width:0.26458332"
         id="path1664" />
    </g>
    <g
       aria-label="E221"
       style="font-style:normal;font-variant:normal;font-weight:normal;font-stretch:normal;font-size:35.68016434px;line-height:1.25;font-family:sans-serif;-inkscape-font-specification:sans-serif;font-variant-ligatures:normal;font-variant-caps:normal;font-variant-numeric:normal;font-feature-settings:normal;text-align:start;letter-spacing:0px;word-spacing:0px;writing-mode:lr-tb;text-anchor:start;fill:#ffe164;fill-opacity:1;stroke:none;stroke-width:0.26458332"
       id="text2759">
      <path
         d="M 216.88176,12.185136 H 205.4878 V -5.1090565 h 11.39396 v 2.0441758 h -9.09426 v 4.7387713 h 9.09426 V 3.7180665 H 207.7875 V 10.14096 h 9.09426 z"
         style="font-size:23.78677368px;fill:#ffe164;fill-opacity:1;stroke-width:0.26458332"
         id="path1631" />
      <path
         d="M 231.79495,12.185136 H 220.0874 V 9.757677 q 1.21953,-1.0453172 2.43907,-2.0906344 1.23115,-1.0453172 2.28808,-2.0790198 2.23001,-2.1603222 3.05465,-3.4263175 0.82464,-1.27760988 0.82464,-2.7526686 0,-1.3472977 -0.89433,-2.102249 -0.88271,-0.766566 -2.47391,-0.766566 -1.05694,0 -2.28809,0.3716683 -1.23115,0.3716684 -2.40423,1.1382343 h -0.11614 v -2.4390734 q 0.82464,-0.4065123 2.19516,-0.7433367 1.38214,-0.3368245 2.67137,-0.3368245 2.65975,0 4.16965,1.2892246 1.50991,1.2776099 1.50991,3.47277604 0,0.98724402 -0.25553,1.84672706 -0.2439,0.8478684 -0.73172,1.6144343 -0.45297,0.7201075 -1.06854,1.4169856 -0.60397,0.6968781 -1.47506,1.5447465 -1.24277,1.2195368 -2.56684,2.3693857 -1.32407,1.1382343 -2.47392,2.1138635 h 9.30333 z"
         style="font-size:23.78677368px;fill:#ffe164;fill-opacity:1;stroke-width:0.26458332"
         id="path1633" />
      <path
         d="M 246.94043,12.185136 H 235.23288 V 9.757677 q 1.21954,-1.0453172 2.43907,-2.0906344 1.23115,-1.0453172 2.28809,-2.0790198 2.23001,-2.1603222 3.05464,-3.4263175 0.82464,-1.27760988 0.82464,-2.7526686 0,-1.3472977 -0.89432,-2.102249 -0.88272,-0.766566 -2.47392,-0.766566 -1.05693,0 -2.28808,0.3716683 -1.23115,0.3716684 -2.40423,1.1382343 h -0.11615 v -2.4390734 q 0.82464,-0.4065123 2.19517,-0.7433367 1.38214,-0.3368245 2.67136,-0.3368245 2.65975,0 4.16966,1.2892246 1.5099,1.2776099 1.5099,3.47277604 0,0.98724402 -0.25552,1.84672706 -0.24391,0.8478684 -0.73172,1.6144343 -0.45298,0.7201075 -1.06855,1.4169856 -0.60396,0.6968781 -1.47506,1.5447465 -1.24277,1.2195368 -2.56683,2.3693857 -1.32407,1.1382343 -2.47392,2.1138635 h 9.30332 z"
         style="font-size:23.78677368px;fill:#ffe164;fill-opacity:1;stroke-width:0.26458332"
         id="path1635" />
      <path
         d="m 261.09867,12.185136 h -9.36139 v -1.765425 h 3.60053 V -1.1716951 h -3.60053 v -1.5795904 q 0.73172,0 1.56797,-0.1161464 0.83626,-0.127761 1.266,-0.3600537 0.53427,-0.2903659 0.83625,-0.731722 0.3136,-0.4529708 0.36005,-1.2079221 h 1.80027 V 10.419711 h 3.53085 z"
         style="font-size:23.78677368px;fill:#ffe164;fill-opacity:1;stroke-width:0.26458332"
         id="path1637" />
    </g>
    <g
       aria-label="E220"
       style="font-style:normal;font-variant:normal;font-weight:normal;font-stretch:normal;font-size:35.68016434px;line-height:1.25;font-family:sans-serif;-inkscape-font-specification:sans-serif;font-variant-ligatures:normal;font-variant-caps:normal;font-variant-numeric:normal;font-feature-settings:normal;text-align:start;letter-spacing:0px;word-spacing:0px;writing-mode:lr-tb;text-anchor:start;fill:#ffe164;fill-opacity:1;stroke:none;stroke-width:0.26458332"
       id="text2763">
      <path
         d="M 287.10922,12.005121 H 275.71526 V -5.2890712 h 11.39396 v 2.0441759 h -9.09426 V 1.493876 h 9.09426 v 2.0441759 h -9.09426 v 6.4228935 h 9.09426 z"
         style="font-size:23.78677368px;fill:#ffe164;fill-opacity:1;stroke-width:0.26458332"
         id="path1622" />
      <path
         d="M 302.02241,12.005121 H 290.31486 V 9.5776624 q 1.21953,-1.0453172 2.43907,-2.0906344 1.23115,-1.0453172 2.28808,-2.0790198 2.23001,-2.1603222 3.05465,-3.4263175 0.82464,-1.27760989 0.82464,-2.75266861 0,-1.34729769 -0.89432,-2.10224909 -0.88272,-0.7665659 -2.47392,-0.7665659 -1.05693,0 -2.28808,0.3716683 -1.23116,0.3716684 -2.40423,1.1382343 h -0.11615 v -2.4390735 q 0.82464,-0.4065122 2.19517,-0.7433366 1.38214,-0.3368245 2.67136,-0.3368245 2.65975,0 4.16966,1.2892246 1.5099,1.2776099 1.5099,3.47277603 0,0.98724402 -0.25552,1.84672706 -0.24391,0.84786841 -0.73173,1.61443431 -0.45297,0.7201074 -1.06854,1.4169856 -0.60396,0.6968781 -1.47506,1.5447465 -1.24277,1.2195367 -2.56684,2.3693857 -1.32406,1.1382343 -2.47391,2.1138641 h 9.30332 z"
         style="font-size:23.78677368px;fill:#ffe164;fill-opacity:1;stroke-width:0.26458332"
         id="path1624" />
      <path
         d="M 317.16789,12.005121 H 305.46034 V 9.5776624 q 1.21954,-1.0453172 2.43908,-2.0906344 1.23115,-1.0453172 2.28808,-2.0790198 2.23001,-2.1603222 3.05465,-3.4263175 0.82464,-1.27760989 0.82464,-2.75266861 0,-1.34729769 -0.89433,-2.10224909 -0.88271,-0.7665659 -2.47392,-0.7665659 -1.05693,0 -2.28808,0.3716683 -1.23115,0.3716684 -2.40423,1.1382343 h -0.11615 v -2.4390735 q 0.82464,-0.4065122 2.19517,-0.7433366 1.38214,-0.3368245 2.67137,-0.3368245 2.65975,0 4.16965,1.2892246 1.5099,1.2776099 1.5099,3.47277603 0,0.98724402 -0.25552,1.84672706 -0.24391,0.84786841 -0.73172,1.61443431 -0.45297,0.7201074 -1.06855,1.4169856 -0.60396,0.6968781 -1.47506,1.5447465 -1.24276,1.2195367 -2.56683,2.3693857 -1.32407,1.1382343 -2.47392,2.1138641 h 9.30332 z"
         style="font-size:23.78677368px;fill:#ffe164;fill-opacity:1;stroke-width:0.26458332"
         id="path1626" />
      <path
         d="m 332.29015,3.3522177 q 0,4.6574689 -1.46344,6.8410203 -1.45183,2.171937 -4.5181,2.171937 -3.11272,0 -4.55293,-2.206781 -1.4286,-2.2067806 -1.4286,-6.782947 0,-4.6110103 1.45182,-6.8061765 1.45183,-2.2067807 4.52971,-2.2067807 3.11273,0 4.54133,2.2416246 1.44021,2.2300101 1.44021,6.7481033 z m -3.05465,5.2730446 q 0.40651,-0.9407855 0.54589,-2.2067808 0.15099,-1.2776099 0.15099,-3.0662638 0,-1.7654246 -0.15099,-3.06626378 -0.13938,-1.30083922 -0.5575,-2.20678072 -0.40652,-0.894327 -1.11501,-1.3472978 -0.69688,-0.4529708 -1.80027,-0.4529708 -1.09177,0 -1.81188,0.4529708 -0.70849,0.4529708 -1.12662,1.370527 -0.3949,0.8594831 -0.54589,2.2416247 -0.13937,1.3821416 -0.13937,3.0314199 0,1.8118831 0.12776,3.0314199 0.12776,1.2195367 0.54589,2.1835515 0.38328,0.9059415 1.08016,1.3821416 0.70849,0.4762 1.86995,0.4762 1.09178,0 1.81189,-0.4529707 0.7201,-0.4529708 1.115,-1.370527 z"
         style="font-size:23.78677368px;fill:#ffe164;fill-opacity:1;stroke-width:0.26458332"
         id="path1628" />
    </g>
    <g
       aria-label="Restrooms"
       style="font-style:normal;font-variant:normal;font-weight:normal;font-stretch:normal;font-size:35.68016434px;line-height:1.25;font-family:sans-serif;-inkscape-font-specification:sans-serif;font-variant-ligatures:normal;font-variant-caps:normal;font-variant-numeric:normal;font-feature-settings:normal;text-align:start;letter-spacing:0px;word-spacing:0px;writing-mode:lr-tb;text-anchor:start;opacity:1;fill:#727272;fill-opacity:1;stroke:none;stroke-width:0.26458332"
       id="text2767">
      <path
         d="m 448.28007,47.077076 h -1.49248 l -2.89205,-3.437932 h -1.62024 v 3.437932 h -1.14985 V 38.42998 h 2.42165 q 0.78399,0 1.30665,0.104531 0.52266,0.09872 0.94079,0.360054 0.47039,0.296173 0.73172,0.749144 0.26713,0.447164 0.26713,1.138234 0,0.934979 -0.47039,1.567976 -0.47039,0.627191 -1.29503,0.946593 z m -2.68879,-6.21383 q 0,-0.371668 -0.13357,-0.656227 -0.12776,-0.290366 -0.42974,-0.487815 -0.24971,-0.168412 -0.59235,-0.232292 -0.34263,-0.06969 -0.80721,-0.06969 h -1.35311 v 3.263712 h 1.16147 q 0.54588,0 0.9524,-0.09292 0.40651,-0.09872 0.69107,-0.360053 0.26133,-0.243908 0.38328,-0.557503 0.12776,-0.319402 0.12776,-0.807217 z"
         style="font-size:11.89338684px;fill:#727272;fill-opacity:1;stroke-width:0.26458332"
         id="path1603" />
      <path
         d="m 454.45905,43.946932 h -4.77942 q 0,0.598153 0.18003,1.045317 0.18003,0.441356 0.49362,0.725915 0.30198,0.278751 0.7143,0.418126 0.41813,0.139376 0.91756,0.139376 0.66203,0 1.32987,-0.261329 0.67365,-0.267137 0.95821,-0.522659 h 0.0581 v 1.1905 q -0.55169,0.232293 -1.12662,0.389091 -0.57492,0.156797 -1.20792,0.156797 -1.61443,0 -2.52037,-0.871097 -0.90595,-0.876905 -0.90595,-2.485532 0,-1.591206 0.86529,-2.526184 0.8711,-0.934978 2.28809,-0.934978 1.31245,0 2.02094,0.766566 0.7143,0.766566 0.7143,2.177744 z m -1.06273,-0.836254 q -0.006,-0.859483 -0.43555,-1.329876 -0.42394,-0.470393 -1.29504,-0.470393 -0.8769,0 -1.39956,0.516852 -0.51685,0.516851 -0.58654,1.283417 z"
         style="font-size:11.89338684px;fill:#727272;fill-opacity:1;stroke-width:0.26458332"
         id="path1605" />
      <path
         d="m 460.74838,45.20712 q 0,0.888519 -0.73753,1.457636 -0.73172,0.569118 -2.00352,0.569118 -0.72011,0 -1.32407,-0.168413 -0.59816,-0.174219 -1.00467,-0.377475 v -1.225344 h 0.0581 q 0.51686,0.38909 1.14985,0.621383 0.633,0.226485 1.21373,0.226485 0.72011,0 1.12662,-0.232293 0.40651,-0.232292 0.40651,-0.731722 0,-0.383283 -0.22067,-0.580732 -0.22068,-0.197448 -0.84787,-0.336824 -0.23229,-0.05227 -0.60977,-0.121954 -0.37167,-0.06969 -0.67946,-0.15099 -0.85367,-0.226485 -1.21373,-0.662034 -0.35424,-0.441356 -0.35424,-1.080161 0,-0.400705 0.1626,-0.754952 0.16841,-0.354246 0.50524,-0.632997 0.32521,-0.272944 0.82464,-0.429742 0.50524,-0.162605 1.12662,-0.162605 0.58073,0 1.17308,0.145183 0.59815,0.139376 0.99305,0.342632 v 1.167271 h -0.0581 q -0.41812,-0.307788 -1.01628,-0.516851 -0.59815,-0.214871 -1.17307,-0.214871 -0.59816,0 -1.01048,0.232293 -0.41232,0.226485 -0.41232,0.679456 0,0.400705 0.24972,0.603961 0.2439,0.203256 0.78979,0.331017 0.30198,0.06969 0.67365,0.139376 0.37748,0.06969 0.62719,0.127761 0.76076,0.174219 1.17308,0.598153 0.41232,0.429742 0.41232,1.138235 z"
         style="font-size:11.89338684px;fill:#727272;fill-opacity:1;stroke-width:0.26458332"
         id="path1607" />
      <path
         d="m 465.6846,47.019003 q -0.30779,0.0813 -0.67365,0.133568 -0.36005,0.05227 -0.64461,0.05227 -0.99305,0 -1.50991,-0.534273 -0.51685,-0.534274 -0.51685,-1.713159 v -3.449547 h -0.73753 v -0.917556 h 0.73753 v -1.864149 h 1.09178 v 1.864149 h 2.25324 v 0.917556 h -2.25324 v 2.955925 q 0,0.511044 0.0232,0.80141 0.0232,0.284558 0.1626,0.534273 0.12776,0.232293 0.34844,0.342632 0.22649,0.104532 0.68527,0.104532 0.26713,0 0.5575,-0.0755 0.29036,-0.0813 0.41813,-0.133568 h 0.0581 z"
         style="font-size:11.89338684px;fill:#727272;fill-opacity:1;stroke-width:0.26458332"
         id="path1609" />
      <path
         d="m 471.05637,41.780802 h -0.0581 q -0.24391,-0.05807 -0.4762,-0.0813 -0.22649,-0.02904 -0.54008,-0.02904 -0.50524,0 -0.97563,0.226485 -0.4704,0.220679 -0.90595,0.574925 v 4.605203 h -1.09177 v -6.486774 h 1.09177 v 0.958207 q 0.65042,-0.522658 1.14405,-0.737529 0.49943,-0.220678 1.01628,-0.220678 0.28456,0 0.41232,0.01742 0.12776,0.01161 0.38328,0.05227 z"
         style="font-size:11.89338684px;fill:#727272;fill-opacity:1;stroke-width:0.26458332"
         id="path1611" />
      <path
         d="m 477.62444,43.836593 q 0,1.585397 -0.81302,2.502954 -0.81302,0.917556 -2.17774,0.917556 -1.37634,0 -2.18936,-0.917556 -0.80722,-0.917557 -0.80722,-2.502954 0,-1.585398 0.80722,-2.502954 0.81302,-0.923364 2.18936,-0.923364 1.36472,0 2.17774,0.923364 0.81302,0.917556 0.81302,2.502954 z m -1.12661,0 q 0,-1.260188 -0.49363,-1.869957 -0.49362,-0.615575 -1.37052,-0.615575 -0.88852,0 -1.38215,0.615575 -0.48781,0.609769 -0.48781,1.869957 0,1.219536 0.49362,1.852534 0.49362,0.62719 1.37634,0.62719 0.87109,0 1.36472,-0.621383 0.49943,-0.62719 0.49943,-1.858341 z"
         style="font-size:11.89338684px;fill:#727272;fill-opacity:1;stroke-width:0.26458332"
         id="path1613" />
      <path
         d="m 484.84875,43.836593 q 0,1.585397 -0.81303,2.502954 -0.81302,0.917556 -2.17774,0.917556 -1.37634,0 -2.18936,-0.917556 -0.80722,-0.917557 -0.80722,-2.502954 0,-1.585398 0.80722,-2.502954 0.81302,-0.923364 2.18936,-0.923364 1.36472,0 2.17774,0.923364 0.81303,0.917556 0.81303,2.502954 z m -1.12662,0 q 0,-1.260188 -0.49362,-1.869957 -0.49363,-0.615575 -1.37053,-0.615575 -0.88852,0 -1.38214,0.615575 -0.48782,0.609769 -0.48782,1.869957 0,1.219536 0.49362,1.852534 0.49363,0.62719 1.37634,0.62719 0.8711,0 1.36472,-0.621383 0.49943,-0.62719 0.49943,-1.858341 z"
         style="font-size:11.89338684px;fill:#727272;fill-opacity:1;stroke-width:0.26458332"
         id="path1615" />
      <path
         d="m 496.01041,47.077076 h -1.09177 v -3.693454 q 0,-0.418127 -0.0406,-0.807217 -0.0349,-0.389091 -0.1568,-0.621383 -0.13357,-0.249715 -0.38328,-0.377476 -0.24972,-0.127761 -0.72011,-0.127761 -0.45878,0 -0.91756,0.232293 -0.45878,0.226485 -0.91755,0.580732 0.0174,0.133568 0.029,0.313595 0.0116,0.174219 0.0116,0.348439 v 4.152232 h -1.09178 v -3.693454 q 0,-0.429742 -0.0407,-0.813025 -0.0348,-0.38909 -0.1568,-0.621383 -0.13357,-0.249714 -0.38328,-0.371668 -0.24972,-0.127761 -0.72011,-0.127761 -0.44716,0 -0.90013,0.220678 -0.44717,0.220678 -0.89433,0.56331 v 4.843303 h -1.09178 v -6.486774 h 1.09178 v 0.720107 q 0.51104,-0.423934 1.01628,-0.662034 0.51105,-0.2381 1.08597,-0.2381 0.66203,0 1.12081,0.278751 0.46459,0.278752 0.69107,0.772374 0.66204,-0.557503 1.20792,-0.80141 0.54589,-0.249715 1.16728,-0.249715 1.06854,0 1.57378,0.65042 0.51104,0.644612 0.51104,1.806076 z"
         style="font-size:11.89338684px;fill:#727272;fill-opacity:1;stroke-width:0.26458332"
         id="path1617" />
      <path
         d="m 502.7469,45.20712 q 0,0.888519 -0.73753,1.457636 -0.73172,0.569118 -2.00352,0.569118 -0.72011,0 -1.32407,-0.168413 -0.59816,-0.174219 -1.00467,-0.377475 v -1.225344 h 0.0581 q 0.51685,0.38909 1.14984,0.621383 0.633,0.226485 1.21373,0.226485 0.72011,0 1.12662,-0.232293 0.40652,-0.232292 0.40652,-0.731722 0,-0.383283 -0.22068,-0.580732 -0.22068,-0.197448 -0.84787,-0.336824 -0.23229,-0.05227 -0.60977,-0.121954 -0.37167,-0.06969 -0.67946,-0.15099 -0.85367,-0.226485 -1.21372,-0.662034 -0.35425,-0.441356 -0.35425,-1.080161 0,-0.400705 0.1626,-0.754952 0.16842,-0.354246 0.50524,-0.632997 0.32521,-0.272944 0.82464,-0.429742 0.50524,-0.162605 1.12662,-0.162605 0.58073,0 1.17308,0.145183 0.59815,0.139376 0.99305,0.342632 v 1.167271 h -0.0581 q -0.41813,-0.307788 -1.01629,-0.516851 -0.59815,-0.214871 -1.17307,-0.214871 -0.59816,0 -1.01048,0.232293 -0.41232,0.226485 -0.41232,0.679456 0,0.400705 0.24972,0.603961 0.24391,0.203256 0.78979,0.331017 0.30198,0.06969 0.67365,0.139376 0.37748,0.06969 0.62719,0.127761 0.76076,0.174219 1.17308,0.598153 0.41232,0.429742 0.41232,1.138235 z"
         style="font-size:11.89338684px;fill:#727272;fill-opacity:1;stroke-width:0.26458332"
         id="path1619" />
    </g>
    <path
       inkscape:connector-curvature="0"
       id="path2791"
       d="m 68.891053,48.404889 -13.331682,0.06675"
       style="fill:none;stroke:#d2ffff;stroke-width:3;stroke-linecap:butt;stroke-linejoin:miter;stroke-miterlimit:4;stroke-dasharray:none;stroke-opacity:1" />
    <path
       style="fill:none;stroke:#d3ffff;stroke-width:3;stroke-linecap:butt;stroke-linejoin:miter;stroke-miterlimit:4;stroke-dasharray:none;stroke-opacity:1"
       d="m 141.11878,106.10747 v 13.33177"
       id="path2793"
       inkscape:connector-curvature="0" />
    <path
       style="fill:none;stroke:#d2ffff;stroke-width:3;stroke-linecap:butt;stroke-linejoin:miter;stroke-miterlimit:4;stroke-dasharray:none;stroke-opacity:1"
       d="m 117.65397,48.405213 -13.33168,0.06675"
       id="path2820"
       inkscape:connector-curvature="0" />
    <path
       inkscape:connector-curvature="0"
       id="path2822"
       d="m 141.08841,165.86162 v 13.33177"
       style="fill:none;stroke:#d3ffff;stroke-width:3;stroke-linecap:butt;stroke-linejoin:miter;stroke-miterlimit:4;stroke-dasharray:none;stroke-opacity:1" />
    <path
       inkscape:connector-curvature="0"
       id="path2824"
       d="m 213.02154,47.721829 -13.33169,0.06675"
       style="fill:none;stroke:#d2ffff;stroke-width:3;stroke-linecap:butt;stroke-linejoin:miter;stroke-miterlimit:4;stroke-dasharray:none;stroke-opacity:1" />
    <path
       style="fill:none;stroke:#d2ffff;stroke-width:3;stroke-linecap:butt;stroke-linejoin:miter;stroke-miterlimit:4;stroke-dasharray:none;stroke-opacity:1"
       d="m 266.91778,47.805186 -13.33169,0.06675"
       id="path2841"
       inkscape:connector-curvature="0" />
    <path
       inkscape:connector-curvature="0"
       id="path2843"
       d="m 282.18617,47.805186 -13.33169,0.06675"
       style="fill:none;stroke:#d2ffff;stroke-width:3;stroke-linecap:butt;stroke-linejoin:miter;stroke-miterlimit:4;stroke-dasharray:none;stroke-opacity:1" />
    <path
       style="fill:none;stroke:#d2ffff;stroke-width:3;stroke-linecap:butt;stroke-linejoin:miter;stroke-miterlimit:4;stroke-dasharray:none;stroke-opacity:1"
       d="m 339.06129,47.830814 -13.33168,0.06675"
       id="path2845"
       inkscape:connector-curvature="0" />
    <path
       style="fill:#8093aa;fill-opacity:1;stroke:#000000;stroke-width:0;stroke-linecap:butt;stroke-linejoin:miter;stroke-miterlimit:4;stroke-dasharray:none;stroke-opacity:1"
       d="m 142.13418,89.453238 31.56136,-13.737458 -31.50008,0.009 -0.0613,13.728334"
       id="path2847"
       inkscape:connector-curvature="0"
       sodipodi:nodetypes="cccc" />
    <path
       style="fill:none;stroke:#d2ffff;stroke-width:3;stroke-linecap:butt;stroke-linejoin:miter;stroke-miterlimit:4;stroke-dasharray:none;stroke-opacity:1"
       d="m 162.93494,74.053114 -13.33167,0.06675"
       id="path2853"
       inkscape:connector-curvature="0" />
    <path
       inkscape:connector-curvature="0"
       id="path2855"
       d="m 436.35121,70.620831 v 9.455793"
       style="fill:none;stroke:#d3ffff;stroke-width:3;stroke-linecap:butt;stroke-linejoin:miter;stroke-miterlimit:4;stroke-dasharray:none;stroke-opacity:1" />
    <path
       style="fill:none;stroke:#d3ffff;stroke-width:3;stroke-linecap:butt;stroke-linejoin:miter;stroke-miterlimit:4;stroke-dasharray:none;stroke-opacity:1"
       d="m 489.4097,70.620831 v 9.455793"
       id="path2872"
       inkscape:connector-curvature="0" />
    <g
       id="g1824"
       style="fill:#727272;fill-opacity:1">
      <rect
         y="-40.688885"
         x="145.40746"
         height="88.003555"
         width="26.589039"
         id="rect2694"
         style="opacity:1;fill:#727272;fill-opacity:1;stroke:#c1c1c1;stroke-width:2;stroke-miterlimit:4;stroke-dasharray:none;stroke-dashoffset:0;stroke-opacity:1;paint-order:fill markers stroke" />
      <rect
         style="opacity:1;fill:#727272;fill-opacity:1;stroke:#c1c1c1;stroke-width:2;stroke-miterlimit:4;stroke-dasharray:none;stroke-dashoffset:0;stroke-opacity:1;paint-order:fill markers stroke"
         id="rect2671"
         width="25.951893"
         height="87.578781"
         x="172.59239"
         y="-40.688892" />
      <g
         transform="matrix(2.2475693,0,0,2.2475693,-70.837667,-167.8935)"
         id="g2980"
         style="stroke-width:0.48941761;stroke-miterlimit:4;stroke-dasharray:none;fill:#727272;fill-opacity:1">
        <path
           inkscape:connector-curvature="0"
           id="path2719"
           d="m 108.55659,72.969424 h 11.11195"
           style="fill:#727272;stroke:#c1c1c1;stroke-width:0.48941761;stroke-linecap:butt;stroke-linejoin:miter;stroke-opacity:1;stroke-miterlimit:4;stroke-dasharray:none;fill-opacity:1" />
        <path
           style="fill:#727272;stroke:#c1c1c1;stroke-width:0.48941761;stroke-linecap:butt;stroke-linejoin:miter;stroke-opacity:1;stroke-miterlimit:4;stroke-dasharray:none;fill-opacity:1"
           d="m 108.55659,75.27508 h 11.11195"
           id="path2721"
           inkscape:connector-curvature="0" />
        <path
           inkscape:connector-curvature="0"
           id="path2723"
           d="m 108.55659,77.590186 h 11.11195"
           style="fill:#727272;stroke:#c1c1c1;stroke-width:0.48941761;stroke-linecap:butt;stroke-linejoin:miter;stroke-opacity:1;stroke-miterlimit:4;stroke-dasharray:none;fill-opacity:1" />
        <path
           inkscape:connector-curvature="0"
           id="path2727"
           d="m 108.55659,70.711015 h 11.11195"
           style="fill:#727272;stroke:#c1c1c1;stroke-width:0.48941761;stroke-linecap:butt;stroke-linejoin:miter;stroke-opacity:1;stroke-miterlimit:4;stroke-dasharray:none;fill-opacity:1" />
        <path
           inkscape:connector-curvature="0"
           id="path2731"
           d="m 108.55659,68.06518 h 11.11195"
           style="fill:#727272;stroke:#c1c1c1;stroke-width:0.48941761;stroke-linecap:butt;stroke-linejoin:miter;stroke-opacity:1;stroke-miterlimit:4;stroke-dasharray:none;fill-opacity:1" />
        <path
           style="fill:#727272;stroke:#c1c1c1;stroke-width:0.48941761;stroke-linecap:butt;stroke-linejoin:miter;stroke-opacity:1;stroke-miterlimit:4;stroke-dasharray:none;fill-opacity:1"
           d="m 108.55659,65.948512 h 11.11195"
           id="path2733"
           inkscape:connector-curvature="0" />
        <path
           inkscape:connector-curvature="0"
           id="path2735"
           d="m 108.55659,63.831844 h 11.11195"
           style="fill:#727272;stroke:#c1c1c1;stroke-width:0.48941761;stroke-linecap:butt;stroke-linejoin:miter;stroke-opacity:1;stroke-miterlimit:4;stroke-dasharray:none;fill-opacity:1" />
        <path
           style="fill:#727272;stroke:#c1c1c1;stroke-width:0.48941761;stroke-linecap:butt;stroke-linejoin:miter;stroke-opacity:1;stroke-miterlimit:4;stroke-dasharray:none;fill-opacity:1"
           d="m 108.55659,79.895842 h 11.11195"
           id="path2737"
           inkscape:connector-curvature="0" />
        <path
           inkscape:connector-curvature="0"
           id="path2739"
           d="m 108.55659,82.201498 h 11.11195"
           style="fill:#727272;stroke:#c1c1c1;stroke-width:0.48941761;stroke-linecap:butt;stroke-linejoin:miter;stroke-opacity:1;stroke-miterlimit:4;stroke-dasharray:none;fill-opacity:1" />
        <path
           style="fill:#727272;stroke:#c1c1c1;stroke-width:0.48941761;stroke-linecap:butt;stroke-linejoin:miter;stroke-opacity:1;stroke-miterlimit:4;stroke-dasharray:none;fill-opacity:1"
           d="m 108.55659,84.469357 h 11.11195"
           id="path2741"
           inkscape:connector-curvature="0" />
        <path
           style="fill:#727272;stroke:#c1c1c1;stroke-width:0.48941761;stroke-linecap:butt;stroke-linejoin:miter;stroke-opacity:1;stroke-miterlimit:4;stroke-dasharray:none;fill-opacity:1"
           d="m 108.45109,86.703497 h 11.11195"
           id="path2725"
           inkscape:connector-curvature="0" />
        <path
           style="fill:#727272;stroke:#c1c1c1;stroke-width:0.48941761;stroke-linecap:butt;stroke-linejoin:miter;stroke-opacity:1;stroke-miterlimit:4;stroke-dasharray:none;fill-opacity:1"
           d="M 108.40385,88.782365 H 119.5158"
           id="path2729"
           inkscape:connector-curvature="0" />
      </g>
      <g
         style="stroke-width:0.47946587;stroke-miterlimit:4;stroke-dasharray:none;fill:#727272;fill-opacity:1"
         transform="matrix(2.3418382,0,0,2.2475693,-108.41157,-167.8935)"
         id="g3006">
        <path
           style="fill:#727272;stroke:#c1c1c1;stroke-width:0.47946587;stroke-linecap:butt;stroke-linejoin:miter;stroke-opacity:1;stroke-miterlimit:4;stroke-dasharray:none;fill-opacity:1"
           d="m 108.55659,72.969424 h 11.11195"
           id="path2982"
           inkscape:connector-curvature="0" />
        <path
           inkscape:connector-curvature="0"
           id="path2984"
           d="m 108.55659,75.27508 h 11.11195"
           style="fill:#727272;stroke:#c1c1c1;stroke-width:0.47946587;stroke-linecap:butt;stroke-linejoin:miter;stroke-opacity:1;stroke-miterlimit:4;stroke-dasharray:none;fill-opacity:1" />
        <path
           style="fill:#727272;stroke:#c1c1c1;stroke-width:0.47946587;stroke-linecap:butt;stroke-linejoin:miter;stroke-opacity:1;stroke-miterlimit:4;stroke-dasharray:none;fill-opacity:1"
           d="m 108.55659,77.590186 h 11.11195"
           id="path2986"
           inkscape:connector-curvature="0" />
        <path
           style="fill:#727272;stroke:#c1c1c1;stroke-width:0.47946587;stroke-linecap:butt;stroke-linejoin:miter;stroke-opacity:1;stroke-miterlimit:4;stroke-dasharray:none;fill-opacity:1"
           d="m 108.55659,70.711015 h 11.11195"
           id="path2988"
           inkscape:connector-curvature="0" />
        <path
           style="fill:#727272;stroke:#c1c1c1;stroke-width:0.47946587;stroke-linecap:butt;stroke-linejoin:miter;stroke-opacity:1;stroke-miterlimit:4;stroke-dasharray:none;fill-opacity:1"
           d="m 108.55659,68.06518 h 11.11195"
           id="path2990"
           inkscape:connector-curvature="0" />
        <path
           inkscape:connector-curvature="0"
           id="path2992"
           d="m 108.55659,65.948512 h 11.11195"
           style="fill:#727272;stroke:#c1c1c1;stroke-width:0.47946587;stroke-linecap:butt;stroke-linejoin:miter;stroke-opacity:1;stroke-miterlimit:4;stroke-dasharray:none;fill-opacity:1" />
        <path
           style="fill:#727272;stroke:#c1c1c1;stroke-width:0.47946587;stroke-linecap:butt;stroke-linejoin:miter;stroke-opacity:1;stroke-miterlimit:4;stroke-dasharray:none;fill-opacity:1"
           d="m 108.55659,63.831844 h 11.11195"
           id="path2994"
           inkscape:connector-curvature="0" />
        <path
           inkscape:connector-curvature="0"
           id="path2996"
           d="m 108.55659,79.895842 h 11.11195"
           style="fill:#727272;stroke:#c1c1c1;stroke-width:0.47946587;stroke-linecap:butt;stroke-linejoin:miter;stroke-opacity:1;stroke-miterlimit:4;stroke-dasharray:none;fill-opacity:1" />
        <path
           style="fill:#727272;stroke:#c1c1c1;stroke-width:0.47946587;stroke-linecap:butt;stroke-linejoin:miter;stroke-opacity:1;stroke-miterlimit:4;stroke-dasharray:none;fill-opacity:1"
           d="m 108.55659,82.201498 h 11.11195"
           id="path2998"
           inkscape:connector-curvature="0" />
        <path
           inkscape:connector-curvature="0"
           id="path3000"
           d="m 108.55659,84.469357 h 11.11195"
           style="fill:#727272;stroke:#c1c1c1;stroke-width:0.47946587;stroke-linecap:butt;stroke-linejoin:miter;stroke-opacity:1;stroke-miterlimit:4;stroke-dasharray:none;fill-opacity:1" />
        <path
           inkscape:connector-curvature="0"
           id="path3002"
           d="m 108.45109,86.703497 h 11.11195"
           style="fill:#727272;stroke:#c1c1c1;stroke-width:0.47946587;stroke-linecap:butt;stroke-linejoin:miter;stroke-opacity:1;stroke-miterlimit:4;stroke-dasharray:none;fill-opacity:1" />
        <path
           inkscape:connector-curvature="0"
           id="path3004"
           d="M 108.40385,88.782365 H 119.5158"
           style="fill:#727272;stroke:#c1c1c1;stroke-width:0.47946587;stroke-linecap:butt;stroke-linejoin:miter;stroke-opacity:1;stroke-miterlimit:4;stroke-dasharray:none;fill-opacity:1" />
      </g>
    </g>
    <rect
       style="opacity:1;fill:#727272;fill-opacity:1;stroke:#d3ffff;stroke-width:0;stroke-miterlimit:4;stroke-dasharray:none;stroke-dashoffset:0;stroke-opacity:1;paint-order:fill markers stroke"
       id="rect1750"
       width="23.557962"
       height="48.996738"
       x="420.80054"
       y="81.817902" />
    <rect
       style="opacity:1;fill:#c1c1c1;fill-opacity:1;stroke:#d3ffff;stroke-width:0;stroke-miterlimit:4;stroke-dasharray:none;stroke-dashoffset:0;stroke-opacity:1;paint-order:fill markers stroke"
       id="rect1752"
       width="34.206848"
       height="9.4494047"
       x="415.39581"
       y="81.364571" />
    <rect
       style="opacity:1;fill:#c1c1c1;fill-opacity:1;stroke:#d3ffff;stroke-width:0;stroke-miterlimit:4;stroke-dasharray:none;stroke-dashoffset:0;stroke-opacity:1;paint-order:fill markers stroke"
       id="rect1754"
       width="17.008928"
       height="55.184521"
       x="424.08932"
       y="86.656242" />
  </g>
</svg>
