<?xml version="1.0" encoding="UTF-8" standalone="no"?>
<!-- Created with Inkscape (http://www.inkscape.org/) -->

<svg
   xmlns:dc="http://purl.org/dc/elements/1.1/"
   xmlns:cc="http://creativecommons.org/ns#"
   xmlns:rdf="http://www.w3.org/1999/02/22-rdf-syntax-ns#"
   xmlns:svg="http://www.w3.org/2000/svg"
   xmlns="http://www.w3.org/2000/svg"
   xmlns:sodipodi="http://sodipodi.sourceforge.net/DTD/sodipodi-0.dtd"
   xmlns:inkscape="http://www.inkscape.org/namespaces/inkscape"
   width="2000"
   height="2000"
   viewBox="0 0 529.16666 529.16668"
   version="1.1"
   id="svg10239"
   inkscape:version="0.92.4 (5da689c313, 2019-01-14)"
   sodipodi:docname="CISE_first_floor.svg"
   inkscape:export-filename="C:\Users\fwang\OneDrive\Documents\SH 2020 Graphic Design\Event Maps\CISE\png\CISE_first_floor.png"
   inkscape:export-xdpi="96"
   inkscape:export-ydpi="96">
  <defs
     id="defs10233" />
  <sodipodi:namedview
     id="base"
     pagecolor="#ffffff"
     bordercolor="#666666"
     borderopacity="1.0"
     inkscape:pageopacity="0.0"
     inkscape:pageshadow="2"
     inkscape:zoom="0.32"
     inkscape:cx="845.89138"
     inkscape:cy="893.60436"
     inkscape:document-units="mm"
     inkscape:current-layer="layer1"
     showgrid="false"
     inkscape:window-width="1920"
     inkscape:window-height="1001"
     inkscape:window-x="-9"
     inkscape:window-y="-9"
     inkscape:window-maximized="1"
     showguides="false"
     inkscape:guide-bbox="true"
     inkscape:snap-global="false"
     units="px" />
  <metadata
     id="metadata10236">
    <rdf:RDF>
      <cc:Work
         rdf:about="">
        <dc:format>image/svg+xml</dc:format>
        <dc:type
           rdf:resource="http://purl.org/dc/dcmitype/StillImage" />
        <dc:title />
      </cc:Work>
    </rdf:RDF>
  </metadata>
  <g
     inkscape:label="Layer 1"
     inkscape:groupmode="layer"
     id="layer1"
     transform="translate(0,232.16668)"
     style="opacity:1">
    <rect
       y="91.53698"
       x="230.16522"
       height="46.244965"
       width="118.72246"
       id="rect1143"
       style="opacity:1;fill:#727272;fill-opacity:1;stroke:#727272;stroke-width:0.99999994;stroke-miterlimit:4;stroke-dasharray:none;stroke-dashoffset:0;stroke-opacity:1;paint-order:fill markers stroke" />
    <rect
       ry="0"
       y="-224.24609"
       x="10.907477"
       height="335.97433"
       width="337.98026"
       id="rect1145"
       style="opacity:1;fill:#727272;fill-opacity:1;stroke:none;stroke-width:0;stroke-miterlimit:4;stroke-dasharray:none;stroke-dashoffset:0;stroke-opacity:1;paint-order:fill markers stroke" />
    <rect
       y="-97.596558"
       x="345.52487"
       height="214.84256"
       width="82.941566"
       id="rect1147"
       style="opacity:1;fill:#727272;fill-opacity:1;stroke:none;stroke-width:0;stroke-miterlimit:4;stroke-dasharray:none;stroke-dashoffset:0;stroke-opacity:1;paint-order:fill markers stroke" />
    <rect
       y="-168.70305"
       x="424.04016"
       height="99.020828"
       width="101.16259"
       id="rect1149"
       style="opacity:1;fill:#727272;fill-opacity:1;stroke:none;stroke-width:0;stroke-miterlimit:4;stroke-dasharray:none;stroke-dashoffset:0;stroke-opacity:1;paint-order:fill markers stroke" />
    <rect
       y="-71.100975"
       x="427.85538"
       height="16.932545"
       width="51.426403"
       id="rect1151"
       style="opacity:1;fill:#727272;fill-opacity:1;stroke:none;stroke-width:0;stroke-miterlimit:4;stroke-dasharray:none;stroke-dashoffset:0;stroke-opacity:1;paint-order:fill markers stroke" />
    <rect
       y="-54.90406"
       x="441.53131"
       height="19.557924"
       width="38.194767"
       id="rect1153"
       style="opacity:1;fill:#727272;fill-opacity:1;stroke:none;stroke-width:0;stroke-miterlimit:4;stroke-dasharray:none;stroke-dashoffset:0;stroke-opacity:1;paint-order:fill markers stroke" />
    <rect
       y="110.08926"
       x="64.950394"
       height="164.12418"
       width="116.58414"
       id="rect1155"
       style="opacity:1;fill:#727272;fill-opacity:1;stroke:none;stroke-width:0;stroke-miterlimit:4;stroke-dasharray:none;stroke-dashoffset:0;stroke-opacity:1;paint-order:fill markers stroke" />
    <rect
       y="116.46092"
       x="344.03748"
       height="74.429634"
       width="84.286255"
       id="rect1157"
       style="opacity:1;fill:#727272;fill-opacity:1;stroke:none;stroke-width:0;stroke-miterlimit:4;stroke-dasharray:none;stroke-dashoffset:0;stroke-opacity:1;paint-order:fill markers stroke" />
    <rect
       y="111.52405"
       x="181.26231"
       height="26.901693"
       width="131.46516"
       id="rect1159"
       style="opacity:1;fill:#727272;fill-opacity:1;stroke:none;stroke-width:0;stroke-miterlimit:4;stroke-dasharray:none;stroke-dashoffset:0;stroke-opacity:1;paint-order:fill markers stroke" />
    <rect
       y="137.64037"
       x="218.57375"
       height="29.269272"
       width="94.094765"
       id="rect1161"
       style="opacity:1;fill:#727272;fill-opacity:1;stroke:none;stroke-width:0;stroke-miterlimit:4;stroke-dasharray:none;stroke-dashoffset:0;stroke-opacity:1;paint-order:fill markers stroke" />
    <rect
       y="166.25038"
       x="229.49814"
       height="12.726089"
       width="71.216675"
       id="rect1163"
       style="opacity:1;fill:#727272;fill-opacity:1;stroke:none;stroke-width:0;stroke-miterlimit:4;stroke-dasharray:none;stroke-dashoffset:0;stroke-opacity:1;paint-order:fill markers stroke" />
    <rect
       y="273.35687"
       x="65.009392"
       height="17.06271"
       width="58.612911"
       id="rect1165"
       style="opacity:1;fill:#727272;fill-opacity:1;stroke:none;stroke-width:0;stroke-miterlimit:4;stroke-dasharray:none;stroke-dashoffset:0;stroke-opacity:1;paint-order:fill markers stroke" />
    <rect
       y="272.97745"
       x="142.9695"
       height="17.442101"
       width="22.74489"
       id="rect1167"
       style="opacity:1;fill:#727272;fill-opacity:1;stroke:none;stroke-width:0;stroke-miterlimit:4;stroke-dasharray:none;stroke-dashoffset:0;stroke-opacity:1;paint-order:fill markers stroke" />
    <path
       inkscape:connector-curvature="0"
       id="path1169"
       d="m 312.66851,166.62559 -12.35532,-0.37518 v 12.72608 z"
       style="opacity:1;fill:#727272;fill-opacity:1;stroke:#000000;stroke-width:0;stroke-linecap:butt;stroke-linejoin:miter;stroke-miterlimit:4;stroke-dasharray:none;stroke-opacity:1" />
    <path
       inkscape:connector-curvature="0"
       id="path1171"
       d="m 218.57373,167.69647 11.20856,11.27996 v -12.72602 l -11.20856,0.37524 z"
       style="opacity:1;fill:#727272;fill-opacity:1;stroke:#000000;stroke-width:0;stroke-linecap:butt;stroke-linejoin:miter;stroke-miterlimit:4;stroke-dasharray:none;stroke-opacity:1" />
    <path
       inkscape:connector-curvature="0"
       id="path1173"
       d="m 165.52942,290.41948 -0.0271,-17.44209 16.03224,1.23612 z"
       style="opacity:1;fill:#727272;fill-opacity:1;stroke:#000000;stroke-width:0;stroke-linecap:butt;stroke-linejoin:miter;stroke-miterlimit:4;stroke-dasharray:none;stroke-opacity:1" />
    <rect
       y="-70.22097"
       x="478.36835"
       height="17.458668"
       width="29.913797"
       id="rect1175"
       style="opacity:1;fill:#727272;fill-opacity:1;stroke:none;stroke-width:0;stroke-miterlimit:4;stroke-dasharray:none;stroke-dashoffset:0;stroke-opacity:1;paint-order:fill markers stroke" />
    <path
       inkscape:connector-curvature="0"
       id="path1177"
       d="m 508.14007,-52.762296 v -17.458652 l 17.06263,0.538753 z"
       style="opacity:1;fill:#727272;fill-opacity:1;stroke:#000000;stroke-width:0;stroke-linecap:butt;stroke-linejoin:miter;stroke-miterlimit:4;stroke-dasharray:none;stroke-opacity:1" />
    <path
       sodipodi:nodetypes="cccccccccccccccccccccccccccccc"
       inkscape:connector-curvature="0"
       id="path1179"
       d="m 504.68215,-57.597483 h -27.78718 l 0.006,17.814535 h -32.55643 l -0.0233,-18.509458 H 424.38468 V 186.65044 h -74.55836 l -0.93859,-53.43584 h -40.41727 l -0.52066,31.92188 -9.94289,8.65452 -66.97021,4e-5 -8.63836,-8.65456 V 133.1645 H 176.6357 l -2e-5,138.75942 -13.54324,13.51831 -91.958449,-0.0736 -2.300375,0.0736 -0.268789,-178.21913 -53.63218,-0.0945 V -221.24445 H 344.69267 l -0.23868,127.223788 83.6587,0.06792 -0.24831,-71.644908 h 92.23858 v 92.983228 z"
       style="fill:#c1c1c1;fill-opacity:1;stroke:#000000;stroke-width:0;stroke-linecap:butt;stroke-linejoin:miter;stroke-miterlimit:4;stroke-dasharray:none;stroke-opacity:1" />
    <path
       sodipodi:nodetypes="cscc"
       inkscape:connector-curvature="0"
       id="path1181"
       d="m 504.1672,-58.18528 c 0,0 16.57902,-14.385158 14.59267,-14.535641 l -15.40307,-1.166914 0.14105,15.511335"
       style="fill:#c46f4d;fill-opacity:1;stroke:#c1c1c1;stroke-width:0.75000006;stroke-linecap:butt;stroke-linejoin:miter;stroke-miterlimit:4;stroke-dasharray:none;stroke-opacity:1" />
    <rect
       y="-219.26764"
       x="15.69757"
       height="134.45776"
       width="106.05825"
       id="rect1183"
       style="opacity:1;fill:#8093aa;fill-opacity:1;stroke:#c1c1c1;stroke-width:2;stroke-miterlimit:4;stroke-dasharray:none;stroke-dashoffset:0;stroke-opacity:1;paint-order:fill markers stroke" />
    <rect
       y="-220.29951"
       x="194.90079"
       height="21.800093"
       width="39.488754"
       id="rect1189"
       style="opacity:1;fill:#c46f4d;fill-opacity:1;stroke:#c1c1c1;stroke-width:2;stroke-miterlimit:4;stroke-dasharray:none;stroke-dashoffset:0;stroke-opacity:1;paint-order:fill markers stroke" />
    <rect
       y="-220.29951"
       x="234.38954"
       height="137.02744"
       width="109.79538"
       id="rect1191"
       style="opacity:1;fill:#8093aa;fill-opacity:1;stroke:#c1c1c1;stroke-width:2;stroke-miterlimit:4;stroke-dasharray:none;stroke-dashoffset:0;stroke-opacity:1;paint-order:fill markers stroke" />
    <rect
       y="-84.809837"
       x="15.697585"
       height="61.346161"
       width="83.758224"
       id="rect1193"
       style="opacity:1;fill:#8093aa;fill-opacity:1;stroke:#c1c1c1;stroke-width:2;stroke-miterlimit:4;stroke-dasharray:none;stroke-dashoffset:0;stroke-opacity:1;paint-order:fill markers stroke" />
    <rect
       y="-23.46368"
       x="15.888814"
       height="61.462757"
       width="83.566994"
       id="rect1195"
       style="opacity:1;fill:#8093aa;fill-opacity:1;stroke:#c1c1c1;stroke-width:2;stroke-miterlimit:4;stroke-dasharray:none;stroke-dashoffset:0;stroke-opacity:1;paint-order:fill markers stroke" />
    <rect
       y="37.626041"
       x="15.697584"
       height="69.272148"
       width="83.758194"
       id="rect1197"
       style="opacity:1;fill:#8093aa;fill-opacity:1;stroke:#c1c1c1;stroke-width:2;stroke-miterlimit:4;stroke-dasharray:none;stroke-dashoffset:0;stroke-opacity:1;paint-order:fill markers stroke" />
    <rect
       y="-70.078262"
       x="99.50901"
       height="120.61552"
       width="92.863312"
       id="rect1199"
       style="opacity:1;fill:#8093aa;fill-opacity:1;stroke:#c1c1c1;stroke-width:2;stroke-miterlimit:4;stroke-dasharray:none;stroke-dashoffset:0;stroke-opacity:1;paint-order:fill markers stroke" />
    <rect
       y="-84.809837"
       x="99.455803"
       height="14.724619"
       width="22.300013"
       id="rect1201"
       style="opacity:1;fill:#c46f4d;fill-opacity:1;stroke:#c1c1c1;stroke-width:2;stroke-miterlimit:4;stroke-dasharray:none;stroke-dashoffset:0;stroke-opacity:1;paint-order:fill markers stroke" />
    <rect
       y="-114.15965"
       x="121.67996"
       height="44.081455"
       width="37.304096"
       id="rect1203"
       style="opacity:1;fill:#c46f4d;fill-opacity:1;stroke:#c1c1c1;stroke-width:2;stroke-miterlimit:4;stroke-dasharray:none;stroke-dashoffset:0;stroke-opacity:1;paint-order:fill markers stroke" />
    <rect
       y="-114.15965"
       x="158.98402"
       height="44.081455"
       width="33.388287"
       id="rect1205"
       style="opacity:1;fill:#c46f4d;fill-opacity:1;stroke:#c1c1c1;stroke-width:2;stroke-miterlimit:4;stroke-dasharray:none;stroke-dashoffset:0;stroke-opacity:1;paint-order:fill markers stroke" />
    <rect
       y="50.537338"
       x="99.50901"
       height="56.394608"
       width="92.863312"
       id="rect1207"
       style="opacity:1;fill:#8093aa;fill-opacity:1;stroke:#c1c1c1;stroke-width:2;stroke-miterlimit:4;stroke-dasharray:none;stroke-dashoffset:0;stroke-opacity:1;paint-order:fill markers stroke" />
    <rect
       y="-90.543633"
       x="477.23196"
       height="31.81776"
       width="26.653805"
       id="rect1209"
       style="opacity:1;fill:#c46f4d;fill-opacity:1;stroke:#c1c1c1;stroke-width:2;stroke-miterlimit:4;stroke-dasharray:none;stroke-dashoffset:0;stroke-opacity:1;paint-order:fill markers stroke" />
    <rect
       ry="0"
       y="-90.543633"
       x="504.22046"
       height="17.156425"
       width="14.744047"
       id="rect1211"
       style="opacity:1;fill:#c46f4d;fill-opacity:1;stroke:#c1c1c1;stroke-width:1.99999988;stroke-miterlimit:4;stroke-dasharray:none;stroke-dashoffset:0;stroke-opacity:1;paint-order:fill markers stroke" />
    <rect
       y="-57.302139"
       x="444.62561"
       height="18.125729"
       width="32.275494"
       id="rect1213"
       style="opacity:1;fill:#c46f4d;fill-opacity:1;stroke:#c1c1c1;stroke-width:2;stroke-miterlimit:4;stroke-dasharray:none;stroke-dashoffset:0;stroke-opacity:1;paint-order:fill markers stroke" />
    <rect
       y="-57.651382"
       x="334.88962"
       height="81.654701"
       width="89.495087"
       id="rect1215"
       style="opacity:1;fill:#8093aa;fill-opacity:1;stroke:#c1c1c1;stroke-width:2;stroke-miterlimit:4;stroke-dasharray:none;stroke-dashoffset:0;stroke-opacity:1;paint-order:fill markers stroke" />
    <rect
       y="24.003344"
       x="371.37875"
       height="51.112854"
       width="53.005924"
       id="rect1217"
       style="opacity:1;fill:#c46f4d;fill-opacity:1;stroke:#c1c1c1;stroke-width:2;stroke-miterlimit:4;stroke-dasharray:none;stroke-dashoffset:0;stroke-opacity:1;paint-order:fill markers stroke" />
    <rect
       y="24.220055"
       x="334.80396"
       height="50.896164"
       width="36.574806"
       id="rect1219"
       style="opacity:1;fill:#c46f4d;fill-opacity:1;stroke:#c1c1c1;stroke-width:2;stroke-miterlimit:4;stroke-dasharray:none;stroke-dashoffset:0;stroke-opacity:1;paint-order:fill markers stroke" />
    <rect
       y="74.980927"
       x="335.14001"
       height="32.402225"
       width="52.46505"
       id="rect1221"
       style="opacity:1;fill:#c46f4d;fill-opacity:1;stroke:#c1c1c1;stroke-width:2;stroke-miterlimit:4;stroke-dasharray:none;stroke-dashoffset:0;stroke-opacity:1;paint-order:fill markers stroke" />
    <rect
       y="75.116173"
       x="387.60507"
       height="32.266972"
       width="36.779621"
       id="rect1223"
       style="opacity:1;fill:#c46f4d;fill-opacity:1;stroke:#c1c1c1;stroke-width:2;stroke-miterlimit:4;stroke-dasharray:none;stroke-dashoffset:0;stroke-opacity:1;paint-order:fill markers stroke" />
    <rect
       y="107.38312"
       x="348.85703"
       height="79.451508"
       width="75.527687"
       id="rect1225"
       style="opacity:1;fill:#c46f4d;fill-opacity:1;stroke:#c1c1c1;stroke-width:2;stroke-miterlimit:4;stroke-dasharray:none;stroke-dashoffset:0;stroke-opacity:1;paint-order:fill markers stroke" />
    <rect
       y="-42.659031"
       x="307.84576"
       height="34.075237"
       width="27.043839"
       id="rect1227"
       style="opacity:1;fill:#8093aa;fill-opacity:1;stroke:#c1c1c1;stroke-width:2;stroke-miterlimit:4;stroke-dasharray:none;stroke-dashoffset:0;stroke-opacity:1;paint-order:fill markers stroke" />
    <rect
       y="-8.5837889"
       x="307.84576"
       height="36.509182"
       width="27.043859"
       id="rect1229"
       style="opacity:1;fill:#8093aa;fill-opacity:1;stroke:#c1c1c1;stroke-width:2;stroke-miterlimit:4;stroke-dasharray:none;stroke-dashoffset:0;stroke-opacity:1;paint-order:fill markers stroke" />
    <rect
       y="27.062473"
       x="307.73596"
       height="65.986969"
       width="27.043833"
       id="rect1231"
       style="opacity:1;fill:#8093aa;fill-opacity:1;stroke:#c1c1c1;stroke-width:2;stroke-miterlimit:4;stroke-dasharray:none;stroke-dashoffset:0;stroke-opacity:1;paint-order:fill markers stroke" />
    <rect
       y="-57.651382"
       x="218.62253"
       height="83.375763"
       width="89.495087"
       id="rect1235"
       style="opacity:1;fill:#8093aa;fill-opacity:1;stroke:#c1c1c1;stroke-width:2;stroke-miterlimit:4;stroke-dasharray:none;stroke-dashoffset:0;stroke-opacity:1;paint-order:fill markers stroke" />
    <rect
       y="26.112099"
       x="218.56689"
       height="81.271088"
       width="89.303856"
       id="rect1237"
       style="opacity:1;fill:#8093aa;fill-opacity:1;stroke:#c1c1c1;stroke-width:2;stroke-miterlimit:4;stroke-dasharray:none;stroke-dashoffset:0;stroke-opacity:1;paint-order:fill markers stroke" />
    <rect
       y="107.55555"
       x="68.564857"
       height="177.42194"
       width="83.949455"
       id="rect1239"
       style="opacity:1;fill:#c46f4d;fill-opacity:1;stroke:#c1c1c1;stroke-width:2;stroke-miterlimit:4;stroke-dasharray:none;stroke-dashoffset:0;stroke-opacity:1;paint-order:fill markers stroke" />
    <rect
       y="234.42548"
       x="152.61909"
       height="38.436993"
       width="23.083397"
       id="rect1241"
       style="opacity:1;fill:#c46f4d;fill-opacity:1;stroke:#c1c1c1;stroke-width:2;stroke-miterlimit:4;stroke-dasharray:none;stroke-dashoffset:0;stroke-opacity:1;paint-order:fill markers stroke" />
    <path
       sodipodi:nodetypes="ccscc"
       inkscape:connector-curvature="0"
       id="path1243"
       d="m 152.51429,284.97748 10.57815,0.46476 c 0,0 14.26953,-12.57715 12.99254,-12.77102 -0.96057,-0.14591 -23.46586,0.19124 -23.46586,0.19124 z"
       style="fill:#c46f4d;fill-opacity:1;stroke:#c1c1c1;stroke-width:2;stroke-linecap:butt;stroke-linejoin:miter;stroke-miterlimit:4;stroke-dasharray:none;stroke-opacity:1" />
    <path
       inkscape:connector-curvature="0"
       id="path1245"
       d="m 222.39834,165.36085 8.63836,8.63842 66.97021,-4e-5 9.94289,-8.63838 0.52066,-31.86235 -86.07212,-0.05 z"
       style="fill:#9ee8d1;fill-opacity:1;stroke:#c1c1c1;stroke-width:2;stroke-linecap:butt;stroke-linejoin:miter;stroke-miterlimit:4;stroke-dasharray:none;stroke-opacity:1" />
    <path
       inkscape:connector-curvature="0"
       id="path1247"
       d="m 122.2364,-195.72743 v 12.00393"
       style="fill:none;stroke:#d2ffff;stroke-width:3;stroke-linecap:butt;stroke-linejoin:miter;stroke-miterlimit:4;stroke-dasharray:none;stroke-opacity:1" />
    <path
       style="fill:none;stroke:#d3ffff;stroke-width:3;stroke-linecap:butt;stroke-linejoin:miter;stroke-miterlimit:4;stroke-dasharray:none;stroke-opacity:1"
       d="m 122.23726,-126.75033 v 12.00393"
       id="path1249"
       inkscape:connector-curvature="0" />
    <path
       inkscape:connector-curvature="0"
       id="path1251"
       d="m 152.77046,-114.73837 -12.00378,0.0601"
       style="fill:none;stroke:#d3ffff;stroke-width:3;stroke-linecap:butt;stroke-linejoin:miter;stroke-miterlimit:4;stroke-dasharray:none;stroke-opacity:1" />
    <path
       inkscape:connector-curvature="0"
       id="path1253"
       d="m 158.98404,-108.80526 v 12.003956"
       style="fill:none;stroke:#d3ffff;stroke-width:3;stroke-linecap:butt;stroke-linejoin:miter;stroke-miterlimit:4;stroke-dasharray:none;stroke-opacity:1" />
    <rect
       y="-220.29951"
       x="162.4875"
       height="21.800091"
       width="32.413273"
       id="rect1187"
       style="opacity:1;fill:#c46f4d;fill-opacity:1;stroke:#c1c1c1;stroke-width:2;stroke-miterlimit:4;stroke-dasharray:none;stroke-dashoffset:0;stroke-opacity:1;paint-order:fill markers stroke" />
    <path
       inkscape:connector-curvature="0"
       id="path1257"
       d="m 185.51773,-197.87105 -12.00377,0.0601"
       style="fill:none;stroke:#d2ffff;stroke-width:3;stroke-linecap:butt;stroke-linejoin:miter;stroke-miterlimit:4;stroke-dasharray:none;stroke-opacity:1" />
    <path
       style="fill:none;stroke:#d3ffff;stroke-width:3;stroke-linecap:butt;stroke-linejoin:miter;stroke-miterlimit:4;stroke-dasharray:none;stroke-opacity:1"
       d="m 233.85737,-195.99709 v 12.00394"
       id="path1261"
       inkscape:connector-curvature="0" />
    <path
       style="fill:none;stroke:#d2ffff;stroke-width:3;stroke-linecap:butt;stroke-linejoin:miter;stroke-miterlimit:4;stroke-dasharray:none;stroke-opacity:1"
       d="m 221.79259,-197.87105 -12.00386,0.0601"
       id="path1259"
       inkscape:connector-curvature="0" />
    <path
       inkscape:connector-curvature="0"
       id="path1263"
       d="m 233.85658,-126.68272 v 12.00394"
       style="fill:none;stroke:#d3ffff;stroke-width:3;stroke-linecap:butt;stroke-linejoin:miter;stroke-miterlimit:4;stroke-dasharray:none;stroke-opacity:1" />
    <path
       style="fill:none;stroke:#d3ffff;stroke-width:3;stroke-linecap:butt;stroke-linejoin:miter;stroke-miterlimit:4;stroke-dasharray:none;stroke-opacity:1"
       d="m 116.66643,-84.865526 -12.00378,0.0601"
       id="path1265"
       inkscape:connector-curvature="0" />
    <path
       inkscape:connector-curvature="0"
       id="path1267"
       d="m 99.267292,-35.725001 v 12.004017"
       style="fill:none;stroke:#d3ffff;stroke-width:3;stroke-linecap:butt;stroke-linejoin:miter;stroke-miterlimit:4;stroke-dasharray:none;stroke-opacity:1" />
    <path
       style="fill:#1ebaba;fill-opacity:1;stroke:#d3ffff;stroke-width:3;stroke-linecap:butt;stroke-linejoin:miter;stroke-miterlimit:4;stroke-dasharray:none;stroke-opacity:1"
       d="M 99.267292,25.315624 V 37.319641"
       id="path1269"
       inkscape:connector-curvature="0" />
    <path
       inkscape:connector-curvature="0"
       id="path1271"
       d="M 99.267292,38.166282 V 50.170299"
       style="fill:#d3ffff;fill-opacity:1;stroke:#d3ffff;stroke-width:3;stroke-linecap:butt;stroke-linejoin:miter;stroke-miterlimit:4;stroke-dasharray:none;stroke-opacity:1" />
    <path
       style="fill:#d3ffff;fill-opacity:1;stroke:#d3ffff;stroke-width:3;stroke-linecap:butt;stroke-linejoin:miter;stroke-miterlimit:4;stroke-dasharray:none;stroke-opacity:1"
       d="M 192.69949,51.551479 V 63.555496"
       id="path1273"
       inkscape:connector-curvature="0" />
    <g
       style="fill:#d3ffff;fill-opacity:1;stroke:#d3ffff;stroke-width:1.48242366;stroke-miterlimit:4;stroke-dasharray:none;stroke-opacity:1"
       transform="matrix(2.0237129,0,0,2.0237129,4.8579112,-301.7655)"
       id="g1279">
      <path
         style="fill:#d3ffff;fill-opacity:1;stroke:#d3ffff;stroke-width:1.48242366;stroke-linecap:butt;stroke-linejoin:miter;stroke-miterlimit:4;stroke-dasharray:none;stroke-opacity:1"
         d="m 92.883102,138.86996 v 5.93168"
         id="path1275"
         inkscape:connector-curvature="0" />
      <path
         inkscape:connector-curvature="0"
         id="path1277"
         d="m 92.883102,144.16166 v 5.93168"
         style="fill:#d3ffff;fill-opacity:1;stroke:#d3ffff;stroke-width:1.48242366;stroke-linecap:butt;stroke-linejoin:miter;stroke-miterlimit:4;stroke-dasharray:none;stroke-opacity:1" />
    </g>
    <path
       inkscape:connector-curvature="0"
       id="path1281"
       d="m 153.10467,120.44241 v 12.00402"
       style="opacity:1;fill:#d3ffff;fill-opacity:1;stroke:#d3ffff;stroke-width:3;stroke-linecap:butt;stroke-linejoin:miter;stroke-miterlimit:4;stroke-dasharray:none;stroke-opacity:1" />
    <path
       style="opacity:1;fill:#d3ffff;fill-opacity:1;stroke:#d3ffff;stroke-width:3;stroke-linecap:butt;stroke-linejoin:miter;stroke-miterlimit:4;stroke-dasharray:none;stroke-opacity:1"
       d="m 153.10467,174.86649 v 12.00402"
       id="path1283"
       inkscape:connector-curvature="0" />
    <path
       style="opacity:1;fill:#d3ffff;fill-opacity:1;stroke:#d3ffff;stroke-width:3;stroke-linecap:butt;stroke-linejoin:miter;stroke-miterlimit:4;stroke-dasharray:none;stroke-opacity:1"
       d="m 251.56863,107.87613 -12.0038,0.0601"
       id="path1285"
       inkscape:connector-curvature="0" />
    <path
       style="opacity:1;fill:#d3ffff;fill-opacity:1;stroke:#d3ffff;stroke-width:3;stroke-linecap:butt;stroke-linejoin:miter;stroke-miterlimit:4;stroke-dasharray:none;stroke-opacity:1"
       d="m 308.72714,-56.683618 v 12.003936"
       id="path1287"
       inkscape:connector-curvature="0" />
    <path
       inkscape:connector-curvature="0"
       id="path1289"
       d="m 334.32035,-56.684198 v 12.003936"
       style="opacity:1;fill:#d3ffff;fill-opacity:1;stroke:#d3ffff;stroke-width:3;stroke-linecap:butt;stroke-linejoin:miter;stroke-miterlimit:4;stroke-dasharray:none;stroke-opacity:1" />
    <path
       inkscape:connector-curvature="0"
       id="path1291"
       d="m 321.07958,-8.5086527 -12.00379,0.060104"
       style="opacity:1;fill:#d3ffff;fill-opacity:1;stroke:#d3ffff;stroke-width:3;stroke-linecap:butt;stroke-linejoin:miter;stroke-miterlimit:4;stroke-dasharray:none;stroke-opacity:1" />
    <path
       style="opacity:1;fill:#d3ffff;fill-opacity:1;stroke:#d3ffff;stroke-width:3;stroke-linecap:butt;stroke-linejoin:miter;stroke-miterlimit:4;stroke-dasharray:none;stroke-opacity:1"
       d="m 320.66088,27.053993 -12.0038,0.06011"
       id="path1293"
       inkscape:connector-curvature="0" />
    <path
       style="opacity:1;fill:none;stroke:#d3ffff;stroke-width:3;stroke-linecap:butt;stroke-linejoin:miter;stroke-miterlimit:4;stroke-dasharray:none;stroke-opacity:1"
       d="M 334.90887,28.309161 V 40.313097"
       id="path1295"
       inkscape:connector-curvature="0" />
    <path
       inkscape:connector-curvature="0"
       id="path1297"
       d="M 371.31907,25.096496 V 37.100433"
       style="opacity:1;fill:none;stroke:#d3ffff;stroke-width:3;stroke-linecap:butt;stroke-linejoin:miter;stroke-miterlimit:4;stroke-dasharray:none;stroke-opacity:1" />
    <path
       style="opacity:1;fill:none;stroke:#d3ffff;stroke-width:3;stroke-linecap:butt;stroke-linejoin:miter;stroke-miterlimit:4;stroke-dasharray:none;stroke-opacity:1"
       d="M 308.38981,94.318041 V 106.32198"
       id="path1299"
       inkscape:connector-curvature="0" />
    <path
       inkscape:connector-curvature="0"
       id="path1301"
       d="m 330.8529,93.488726 -12.00379,0.0601"
       style="opacity:1;fill:none;stroke:#d3ffff;stroke-width:3;stroke-linecap:butt;stroke-linejoin:miter;stroke-miterlimit:4;stroke-dasharray:none;stroke-opacity:1" />
    <path
       style="opacity:1;fill:none;stroke:#d3ffff;stroke-width:3;stroke-linecap:butt;stroke-linejoin:miter;stroke-miterlimit:4;stroke-dasharray:none;stroke-opacity:1"
       d="m 348.2147,74.920834 -12.00379,0.0601"
       id="path1303"
       inkscape:connector-curvature="0" />
    <path
       inkscape:connector-curvature="0"
       id="path1305"
       d="m 423.16003,75.280448 -12.00379,0.0601"
       style="opacity:1;fill:none;stroke:#d3ffff;stroke-width:3;stroke-linecap:butt;stroke-linejoin:miter;stroke-miterlimit:4;stroke-dasharray:none;stroke-opacity:1" />
    <path
       style="opacity:1;fill:none;stroke:#d3ffff;stroke-width:3;stroke-linecap:butt;stroke-linejoin:miter;stroke-miterlimit:4;stroke-dasharray:none;stroke-opacity:1"
       d="m 423.16003,107.40709 -12.00379,0.0601"
       id="path1307"
       inkscape:connector-curvature="0" />
    <path
       inkscape:connector-curvature="0"
       id="path1309"
       d="M 334.48397,94.453266 V 106.4572"
       style="opacity:1;fill:none;stroke:#d3ffff;stroke-width:3;stroke-linecap:butt;stroke-linejoin:miter;stroke-miterlimit:4;stroke-dasharray:none;stroke-opacity:1" />
    <path
       style="opacity:1;fill:#d3ffff;fill-opacity:1;stroke:#d3ffff;stroke-width:3;stroke-linecap:butt;stroke-linejoin:miter;stroke-miterlimit:4;stroke-dasharray:none;stroke-opacity:1"
       d="m 250.86098,-58.427113 -12.0038,0.0601"
       id="path1311"
       inkscape:connector-curvature="0" />
    <path
       inkscape:connector-curvature="0"
       id="path1313"
       d="m 406.17959,-58.327466 -12.0038,0.06011"
       style="opacity:1;fill:none;stroke:#d3ffff;stroke-width:3;stroke-linecap:butt;stroke-linejoin:miter;stroke-miterlimit:4;stroke-dasharray:none;stroke-opacity:1" />
    <path
       inkscape:connector-curvature="0"
       id="path1315"
       d="m 265.55779,132.9227 -12.0038,0.0601"
       style="opacity:1;fill:none;stroke:#d3ffff;stroke-width:3;stroke-linecap:butt;stroke-linejoin:miter;stroke-miterlimit:4;stroke-dasharray:none;stroke-opacity:1" />
    <path
       style="opacity:1;fill:none;stroke:#d3ffff;stroke-width:3;stroke-linecap:butt;stroke-linejoin:miter;stroke-miterlimit:4;stroke-dasharray:none;stroke-opacity:1"
       d="m 278.47446,132.88891 -12.00379,0.0601"
       id="path1317"
       inkscape:connector-curvature="0" />
    <path
       style="opacity:1;fill:none;stroke:#d3ffff;stroke-width:3;stroke-linecap:butt;stroke-linejoin:miter;stroke-miterlimit:4;stroke-dasharray:none;stroke-opacity:1"
       d="m 476.50343,-79.170818 v 12.003936"
       id="path1319"
       inkscape:connector-curvature="0" />
    <path
       style="opacity:1;fill:none;stroke:#d3ffff;stroke-width:3;stroke-linecap:butt;stroke-linejoin:miter;stroke-miterlimit:4;stroke-dasharray:none;stroke-opacity:1"
       d="m 462.59862,-58.192241 -12.0038,0.0601"
       id="path1321"
       inkscape:connector-curvature="0" />
    <path
       inkscape:connector-curvature="0"
       id="path1323"
       d="m 170.65822,233.58067 -12.0038,0.0601"
       style="opacity:1;fill:none;stroke:#d3ffff;stroke-width:3;stroke-linecap:butt;stroke-linejoin:miter;stroke-miterlimit:4;stroke-dasharray:none;stroke-opacity:1" />
    <g
       aria-label="E119"
       style="font-style:normal;font-variant:normal;font-weight:normal;font-stretch:normal;font-size:32.12644196px;line-height:1.25;font-family:sans-serif;-inkscape-font-specification:sans-serif;font-variant-ligatures:normal;font-variant-caps:normal;font-variant-numeric:normal;font-feature-settings:normal;text-align:start;letter-spacing:0px;word-spacing:0px;writing-mode:lr-tb;text-anchor:start;fill:#ffe164;fill-opacity:1;stroke:none;stroke-width:0.26458332"
       id="text1327">
      <path
         d="M 50.980636,-143.4651 H 39.011654 v -18.16699 h 11.968982 v 2.14734 h -9.553224 v 4.97793 h 9.553224 v 2.14734 h -9.553224 v 6.74704 h 9.553224 z"
         style="font-size:24.98723221px;fill:#ffe164;fill-opacity:1;stroke-width:0.26458332"
         id="path1705" />
      <path
         d="M 65.609392,-143.4651 H 55.77555 v -1.85452 h 3.782247 v -12.1764 H 55.77555 v -1.65931 q 0.76865,0 1.647107,-0.12201 0.878458,-0.1342 1.329887,-0.37822 0.561237,-0.30502 0.878457,-0.76865 0.329422,-0.47583 0.378225,-1.26888 h 1.891124 v 16.37347 h 3.709042 z"
         style="font-size:24.98723221px;fill:#ffe164;fill-opacity:1;stroke-width:0.26458332"
         id="path1707" />
      <path
         d="m 81.519232,-143.4651 h -9.833843 v -1.85452 h 3.782247 v -12.1764 h -3.782247 v -1.65931 q 0.76865,0 1.647108,-0.12201 0.878457,-0.1342 1.329887,-0.37822 0.561236,-0.30502 0.878457,-0.76865 0.329422,-0.47583 0.378225,-1.26888 h 1.891123 v 16.37347 h 3.709043 z"
         style="font-size:24.98723221px;fill:#ffe164;fill-opacity:1;stroke-width:0.26458332"
         id="path1709" />
      <path
         d="m 98.441737,-153.64057 q 0,2.37916 -0.549036,4.31908 -0.536835,1.93993 -1.634906,3.30642 -1.110273,1.39089 -2.781782,2.14734 -1.671509,0.75645 -3.928657,0.75645 -0.634441,0 -1.195678,-0.0732 -0.561236,-0.061 -1.000465,-0.20742 v -2.33035 h 0.122008 q 0.353823,0.18301 1.000465,0.35382 0.646642,0.15861 1.439694,0.15861 2.696376,0 4.221476,-1.6105 1.5373,-1.62271 1.781316,-4.46549 -1.134674,0.68324 -2.135139,0.97606 -1.000465,0.29282 -2.183943,0.29282 -1.122473,0 -2.037533,-0.21962 -0.902859,-0.21961 -1.817919,-0.85405 -1.07367,-0.74425 -1.622706,-1.89112 -0.536835,-1.14688 -0.536835,-2.74518 0,-2.78179 1.83012,-4.5265 1.830119,-1.74471 4.465492,-1.74471 1.317686,0 2.440159,0.41482 1.122473,0.40263 1.964328,1.22008 1.037068,1.01267 1.598305,2.61097 0.561236,1.58611 0.561236,4.11167 z m -2.464561,-0.52463 q 0,-1.89113 -0.390425,-3.038 -0.390426,-1.14688 -1.07367,-1.78132 -0.573438,-0.54903 -1.232281,-0.78085 -0.658843,-0.24401 -1.427493,-0.24401 -1.756915,0 -2.781782,1.09807 -1.012666,1.09807 -1.012666,3.0868 0,1.15908 0.329422,1.89112 0.329421,0.73205 1.110272,1.28109 0.549036,0.37822 1.207879,0.51243 0.658843,0.12201 1.464096,0.12201 0.951662,0 1.927726,-0.25622 0.976063,-0.25622 1.830119,-0.74425 0.0122,-0.25621 0.0244,-0.50023 0.0244,-0.25622 0.0244,-0.64664 z"
         style="font-size:24.98723221px;fill:#ffe164;fill-opacity:1;stroke-width:0.26458332"
         id="path1711" />
    </g>
    <g
       aria-label="E121"
       style="font-style:normal;font-variant:normal;font-weight:normal;font-stretch:normal;font-size:32.12644196px;line-height:1.25;font-family:sans-serif;-inkscape-font-specification:sans-serif;font-variant-ligatures:normal;font-variant-caps:normal;font-variant-numeric:normal;font-feature-settings:normal;text-align:start;letter-spacing:0px;word-spacing:0px;writing-mode:lr-tb;text-anchor:start;opacity:1;fill:#ffe164;fill-opacity:1;stroke:none;stroke-width:0.26458332"
       id="text1331">
      <path
         d="m 272.04751,-142.5132 h -11.96898 v -18.16699 h 11.96898 v 2.14734 h -9.55323 v 4.97793 h 9.55323 v 2.14734 h -9.55323 v 6.74704 h 9.55323 z"
         style="font-size:24.98723221px;fill:#ffe164;fill-opacity:1;stroke-width:0.26458332"
         id="path1714" />
      <path
         d="m 286.67626,-142.5132 h -9.83384 v -1.85452 h 3.78225 v -12.1764 h -3.78225 v -1.6593 q 0.76865,0 1.64711,-0.12201 0.87846,-0.13421 1.32989,-0.37823 0.56123,-0.30502 0.87845,-0.76865 0.32942,-0.47583 0.37823,-1.26888 h 1.89112 v 16.37347 h 3.70904 z"
         style="font-size:24.98723221px;fill:#ffe164;fill-opacity:1;stroke-width:0.26458332"
         id="path1716" />
      <path
         d="m 303.62317,-142.5132 h -12.2984 v -2.54997 q 1.28108,-1.09807 2.56216,-2.19614 1.29329,-1.09807 2.40356,-2.18394 2.34256,-2.26935 3.20881,-3.59924 0.86626,-1.34208 0.86626,-2.89159 0,-1.41529 -0.93946,-2.20834 -0.92726,-0.80525 -2.59877,-0.80525 -1.11028,0 -2.40356,0.39042 -1.29328,0.39043 -2.52556,1.19568 h -0.12201 v -2.56217 q 0.86625,-0.42702 2.30595,-0.78085 1.45189,-0.35382 2.80618,-0.35382 2.79398,0 4.38009,1.35429 1.5861,1.34209 1.5861,3.64804 0,1.03706 -0.26842,1.93992 -0.25621,0.89066 -0.76865,1.69591 -0.47583,0.75645 -1.12247,1.4885 -0.63444,0.73205 -1.5495,1.62271 -1.30549,1.28108 -2.69638,2.48896 -1.39089,1.19568 -2.59877,2.22054 h 9.77284 z"
         style="font-size:24.98723221px;fill:#ffe164;fill-opacity:1;stroke-width:0.26458332"
         id="path1718" />
      <path
         d="m 318.49594,-142.5132 h -9.83384 v -1.85452 h 3.78225 v -12.1764 h -3.78225 v -1.6593 q 0.76865,0 1.64711,-0.12201 0.87846,-0.13421 1.32988,-0.37823 0.56124,-0.30502 0.87846,-0.76865 0.32942,-0.47583 0.37823,-1.26888 h 1.89112 v 16.37347 h 3.70904 z"
         style="font-size:24.98723221px;fill:#ffe164;fill-opacity:1;stroke-width:0.26458332"
         id="path1720" />
    </g>
    <g
       aria-label="E116"
       style="font-style:normal;font-variant:normal;font-weight:normal;font-stretch:normal;font-size:32.12644196px;line-height:1.25;font-family:sans-serif;-inkscape-font-specification:sans-serif;font-variant-ligatures:normal;font-variant-caps:normal;font-variant-numeric:normal;font-feature-settings:normal;text-align:start;letter-spacing:0px;word-spacing:0px;writing-mode:lr-tb;text-anchor:start;fill:#ffe164;fill-opacity:1;stroke:none;stroke-width:0.26458332"
       id="text1335">
      <path
         d="M 39.237102,-45.07156 H 27.26812 v -18.166987 h 11.968982 v 2.147341 h -9.553224 v 4.977925 h 9.553224 v 2.14734 h -9.553224 v 6.747041 h 9.553224 z"
         style="font-size:24.98723221px;fill:#ffe164;fill-opacity:1;stroke-width:0.26458332"
         id="path1723" />
      <path
         d="m 53.865858,-45.07156 h -9.833843 v -1.854521 h 3.782248 v -12.176395 h -3.782248 v -1.659309 q 0.768651,0 1.647108,-0.122008 0.878457,-0.134209 1.329887,-0.378224 0.561237,-0.30502 0.878457,-0.768651 0.329422,-0.475831 0.378225,-1.268883 h 1.891124 v 16.37347 h 3.709042 z"
         style="font-size:24.98723221px;fill:#ffe164;fill-opacity:1;stroke-width:0.26458332"
         id="path1725" />
      <path
         d="m 69.775697,-45.07156 h -9.833842 v -1.854521 h 3.782247 v -12.176395 h -3.782247 v -1.659309 q 0.76865,0 1.647108,-0.122008 0.878457,-0.134209 1.329887,-0.378224 0.561236,-0.30502 0.878457,-0.768651 0.329421,-0.475831 0.378225,-1.268883 h 1.891123 v 16.37347 h 3.709042 z"
         style="font-size:24.98723221px;fill:#ffe164;fill-opacity:1;stroke-width:0.26458332"
         id="path1727" />
      <path
         d="m 86.991022,-50.964545 q 0,2.769581 -1.830119,4.526496 -1.817919,1.744714 -4.465492,1.744714 -1.342088,0 -2.440159,-0.414827 -1.098072,-0.414827 -1.939927,-1.232281 -1.049268,-1.012666 -1.622706,-2.684175 -0.561237,-1.671509 -0.561237,-4.026263 0,-2.415758 0.512434,-4.28248 0.524634,-1.866722 1.659308,-3.318617 1.07367,-1.37869 2.769581,-2.14734 1.695911,-0.780851 3.953058,-0.780851 0.719847,0 1.207879,0.061 0.488032,0.061 0.988265,0.219614 v 2.330353 h -0.122008 q -0.341622,-0.183012 -1.037068,-0.341623 -0.683245,-0.170811 -1.403092,-0.170811 -2.623171,0 -4.184873,1.647108 -1.561702,1.634907 -1.817919,4.428889 1.024867,-0.622241 2.013132,-0.939461 1.000465,-0.329422 2.30595,-0.329422 1.159076,0 2.037534,0.219615 0.890658,0.207413 1.817918,0.854055 1.07367,0.744249 1.610506,1.878923 0.549035,1.134674 0.549035,2.75738 z m -2.476761,0.09761 q 0,-1.134675 -0.341623,-1.878923 -0.329421,-0.744249 -1.098071,-1.293285 -0.561237,-0.390425 -1.244482,-0.512433 -0.683244,-0.122008 -1.427493,-0.122008 -1.037068,0 -1.927726,0.244016 -0.890658,0.244016 -1.830119,0.756449 -0.0244,0.268418 -0.0366,0.524634 -0.0122,0.244016 -0.0122,0.622241 0,1.927726 0.390426,3.050199 0.402626,1.110273 1.098072,1.756915 0.561236,0.536835 1.207879,0.793052 0.658843,0.244016 1.427493,0.244016 1.769115,0 2.781781,-1.07367 1.012667,-1.085871 1.012667,-3.111203 z"
         style="font-size:24.98723221px;fill:#ffe164;fill-opacity:1;stroke-width:0.26458332"
         id="path1729" />
    </g>
    <g
       aria-label="E115"
       style="font-style:normal;font-variant:normal;font-weight:normal;font-stretch:normal;font-size:32.12644196px;line-height:1.25;font-family:sans-serif;-inkscape-font-specification:sans-serif;font-variant-ligatures:normal;font-variant-caps:normal;font-variant-numeric:normal;font-feature-settings:normal;text-align:start;letter-spacing:0px;word-spacing:0px;writing-mode:lr-tb;text-anchor:start;fill:#ffe164;fill-opacity:1;stroke:none;stroke-width:0.26458332"
       id="text1339">
      <path
         d="M 39.987257,16.192583 H 28.018275 V -1.9744036 H 39.987257 V 0.17293665 H 30.434033 V 5.1508618 h 9.553224 v 2.1473403 h -9.553224 v 6.7470409 h 9.553224 z"
         style="font-size:24.98723221px;fill:#ffe164;fill-opacity:1;stroke-width:0.26458332"
         id="path1732" />
      <path
         d="M 54.616012,16.192583 H 44.78217 v -1.854521 h 3.782247 V 2.1616666 H 44.78217 V 0.50235817 q 0.76865,0 1.647108,-0.12200797 0.878457,-0.13420876 1.329886,-0.3782247 0.561237,-0.30501993 0.878458,-0.76865021 0.329421,-0.47583109 0.378225,-1.26888289 H 50.90697 V 14.338062 h 3.709042 z"
         style="font-size:24.98723221px;fill:#ffe164;fill-opacity:1;stroke-width:0.26458332"
         id="path1734" />
      <path
         d="M 70.525852,16.192583 H 60.69201 v -1.854521 h 3.782247 V 2.1616666 H 60.69201 V 0.50235817 q 0.76865,0 1.647107,-0.12200797 0.878458,-0.13420876 1.329887,-0.3782247 0.561237,-0.30501993 0.878457,-0.76865021 0.329422,-0.47583109 0.378225,-1.26888289 H 66.81681 V 14.338062 h 3.709042 z"
         style="font-size:24.98723221px;fill:#ffe164;fill-opacity:1;stroke-width:0.26458332"
         id="path1736" />
      <path
         d="m 87.32635,10.421606 q 0,1.268883 -0.46363,2.427959 -0.463631,1.159075 -1.268883,1.952127 -0.878458,0.854056 -2.098537,1.317686 -1.207879,0.45143 -2.806184,0.45143 -1.488497,0 -2.867187,-0.317221 -1.37869,-0.30502 -2.330352,-0.744249 V 12.93497 h 0.170811 q 1.000465,0.634442 2.342553,1.085871 1.342088,0.439229 2.635372,0.439229 0.866257,0 1.671509,-0.244016 0.817454,-0.244016 1.451895,-0.854056 0.536835,-0.524634 0.805253,-1.256682 0.280618,-0.732048 0.280618,-1.695911 0,-0.9394611 -0.329422,-1.5861033 Q 84.202946,8.1766595 83.629508,7.786234 82.995067,7.3226037 82.080007,7.1395917 81.177148,6.944379 80.054675,6.944379 q -1.07367,0 -2.074136,0.1464095 -0.988264,0.1464096 -1.708111,0.2928192 v -9.3580113 h 10.931914 v 2.13513946 h -8.57716 V 4.9922515 q 0.524634,-0.048803 1.07367,-0.073205 0.549036,-0.024402 0.951662,-0.024402 1.476296,0 2.586569,0.2562167 1.110272,0.244016 2.037533,0.8784574 0.976064,0.6710438 1.512899,1.7325132 0.536835,1.0614693 0.536835,2.6597736 z"
         style="font-size:24.98723221px;fill:#ffe164;fill-opacity:1;stroke-width:0.26458332"
         id="path1738" />
    </g>
    <g
       aria-label="E113"
       style="font-style:normal;font-variant:normal;font-weight:normal;font-stretch:normal;font-size:32.12644196px;line-height:1.25;font-family:sans-serif;-inkscape-font-specification:sans-serif;font-variant-ligatures:normal;font-variant-caps:normal;font-variant-numeric:normal;font-feature-settings:normal;text-align:start;letter-spacing:0px;word-spacing:0px;writing-mode:lr-tb;text-anchor:start;fill:#ffe164;fill-opacity:1;stroke:none;stroke-width:0.26458332"
       id="text1343">
      <path
         d="M 39.777986,81.345604 H 27.809004 V 63.178617 h 11.968982 v 2.147341 h -9.553224 v 4.977925 h 9.553224 v 2.14734 h -9.553224 v 6.747041 h 9.553224 z"
         style="font-size:24.98723221px;fill:#ffe164;fill-opacity:1;stroke-width:0.26458332"
         id="path1741" />
      <path
         d="M 54.406742,81.345604 H 44.5729 v -1.854521 h 3.782247 V 67.314687 H 44.5729 v -1.659308 q 0.76865,0 1.647107,-0.122008 0.878457,-0.134209 1.329887,-0.378225 0.561237,-0.30502 0.878457,-0.76865 0.329422,-0.475831 0.378225,-1.268883 H 50.6977 v 16.37347 h 3.709042 z"
         style="font-size:24.98723221px;fill:#ffe164;fill-opacity:1;stroke-width:0.26458332"
         id="path1743" />
      <path
         d="m 70.316582,81.345604 h -9.833843 v -1.854521 h 3.782247 V 67.314687 h -3.782247 v -1.659308 q 0.76865,0 1.647108,-0.122008 0.878457,-0.134209 1.329887,-0.378225 0.561236,-0.30502 0.878457,-0.76865 0.329422,-0.475831 0.378225,-1.268883 h 1.891123 v 16.37347 h 3.709043 z"
         style="font-size:24.98723221px;fill:#ffe164;fill-opacity:1;stroke-width:0.26458332"
         id="path1745" />
      <path
         d="m 85.665184,72.597633 q 0.585639,0.524634 0.963863,1.317686 0.378225,0.793051 0.378225,2.049733 0,1.244482 -0.451429,2.28155 -0.45143,1.037067 -1.268883,1.805717 -0.91506,0.854056 -2.159541,1.268883 -1.232281,0.402627 -2.708577,0.402627 -1.512899,0 -2.976995,-0.366024 -1.464095,-0.353823 -2.403557,-0.780851 v -2.549967 h 0.183012 q 1.037068,0.683245 2.44016,1.134674 1.403091,0.45143 2.708577,0.45143 0.76865,0 1.634906,-0.256217 0.866257,-0.256217 1.403092,-0.756449 0.561237,-0.536835 0.829654,-1.183478 0.280619,-0.646642 0.280619,-1.634906 0,-0.976064 -0.317221,-1.610506 -0.30502,-0.646642 -0.854056,-1.012666 -0.549036,-0.378225 -1.329887,-0.512433 -0.780851,-0.14641 -1.68371,-0.14641 h -1.098072 v -2.025332 h 0.854056 q 1.854521,0 2.952593,-0.76865 1.110273,-0.780851 1.110273,-2.269349 0,-0.658843 -0.280619,-1.146875 -0.280618,-0.500232 -0.780851,-0.817453 -0.524634,-0.317221 -1.122473,-0.439229 -0.597839,-0.122008 -1.354288,-0.122008 -1.159076,0 -2.464561,0.414828 -1.305486,0.414827 -2.464561,1.171276 h -0.122008 v -2.549967 q 0.866256,-0.427027 2.30595,-0.780851 1.451895,-0.366023 2.806184,-0.366023 1.329886,0 2.342553,0.244015 1.012666,0.244016 1.830119,0.780851 0.878457,0.585639 1.329887,1.415293 0.451429,0.829654 0.451429,1.939927 0,1.512898 -1.07367,2.647573 -1.061469,1.122473 -2.513364,1.415292 v 0.170811 q 0.585638,0.09761 1.342088,0.414827 0.756449,0.30502 1.281083,0.768651 z"
         style="font-size:24.98723221px;fill:#ffe164;fill-opacity:1;stroke-width:0.26458332"
         id="path1747" />
    </g>
    <g
       aria-label="E112"
       style="font-style:normal;font-variant:normal;font-weight:normal;font-stretch:normal;font-size:32.12644196px;line-height:1.25;font-family:sans-serif;-inkscape-font-specification:sans-serif;font-variant-ligatures:normal;font-variant-caps:normal;font-variant-numeric:normal;font-feature-settings:normal;text-align:start;letter-spacing:0px;word-spacing:0px;writing-mode:lr-tb;text-anchor:start;fill:#ffe164;fill-opacity:1;stroke:none;stroke-width:0.26458332"
       id="text1347">
      <path
         d="M 128.1824,88.007248 H 116.21342 V 69.840261 h 11.96898 v 2.14734 h -9.55322 v 4.977926 h 9.55322 v 2.14734 h -9.55322 v 6.747041 h 9.55322 z"
         style="font-size:24.98723221px;fill:#ffe164;fill-opacity:1;stroke-width:0.26458332"
         id="path1759" />
      <path
         d="m 142.81116,88.007248 h -9.83384 v -1.854521 h 3.78224 V 73.976331 h -3.78224 v -1.659308 q 0.76865,0 1.6471,-0.122008 0.87846,-0.134209 1.32989,-0.378225 0.56124,-0.30502 0.87846,-0.76865 0.32942,-0.475831 0.37822,-1.268883 h 1.89113 v 16.37347 h 3.70904 z"
         style="font-size:24.98723221px;fill:#ffe164;fill-opacity:1;stroke-width:0.26458332"
         id="path1761" />
      <path
         d="m 158.721,88.007248 h -9.83384 v -1.854521 h 3.78224 V 73.976331 h -3.78224 v -1.659308 q 0.76865,0 1.6471,-0.122008 0.87846,-0.134209 1.32989,-0.378225 0.56124,-0.30502 0.87846,-0.76865 0.32942,-0.475831 0.37822,-1.268883 h 1.89113 v 16.37347 h 3.70904 z"
         style="font-size:24.98723221px;fill:#ffe164;fill-opacity:1;stroke-width:0.26458332"
         id="path1763" />
      <path
         d="M 175.66791,88.007248 H 163.3695 v -2.549967 q 1.28109,-1.098071 2.56217,-2.196143 1.29328,-1.098072 2.40356,-2.183943 2.34255,-2.269348 3.20881,-3.599235 0.86625,-1.342088 0.86625,-2.891589 0,-1.415292 -0.93946,-2.208344 -0.92726,-0.805253 -2.59877,-0.805253 -1.11027,0 -2.40355,0.390426 -1.29329,0.390425 -2.52557,1.195678 h -0.12201 v -2.562167 q 0.86626,-0.427028 2.30595,-0.780851 1.4519,-0.353823 2.80619,-0.353823 2.79398,0 4.38008,1.354288 1.58611,1.342088 1.58611,3.648038 0,1.037068 -0.26842,1.939927 -0.25622,0.890658 -0.76865,1.695911 -0.47583,0.756449 -1.12248,1.488497 -0.63444,0.732048 -1.5495,1.622706 -1.30548,1.281084 -2.69637,2.488963 -1.39089,1.195678 -2.59877,2.220545 h 9.77284 z"
         style="font-size:24.98723221px;fill:#ffe164;fill-opacity:1;stroke-width:0.26458332"
         id="path1765" />
    </g>
    <g
       aria-label="E114"
       style="font-style:normal;font-variant:normal;font-weight:normal;font-stretch:normal;font-size:32.12644196px;line-height:1.25;font-family:sans-serif;-inkscape-font-specification:sans-serif;font-variant-ligatures:normal;font-variant-caps:normal;font-variant-numeric:normal;font-feature-settings:normal;text-align:start;letter-spacing:0px;word-spacing:0px;writing-mode:lr-tb;text-anchor:start;fill:#ffe164;fill-opacity:1;stroke:none;stroke-width:0.26458332"
       id="text1351">
      <path
         d="M 127.97499,-0.65648848 H 116.00601 V -18.823475 h 11.96898 v 2.14734 h -9.55322 v 4.977925 h 9.55322 v 2.1473405 h -9.55322 v 6.7470408 h 9.55322 z"
         style="font-size:24.98723221px;fill:#ffe164;fill-opacity:1;stroke-width:0.26458332"
         id="path1750" />
      <path
         d="M 142.60375,-0.65648848 H 132.7699 V -2.5110096 h 3.78225 V -14.687405 h -3.78225 v -1.659308 q 0.76865,0 1.64711,-0.122008 0.87846,-0.134209 1.32989,-0.378225 0.56123,-0.30502 0.87846,-0.76865 0.32942,-0.475831 0.37822,-1.268883 h 1.89112 v 16.3734694 h 3.70905 z"
         style="font-size:24.98723221px;fill:#ffe164;fill-opacity:1;stroke-width:0.26458332"
         id="path1752" />
      <path
         d="m 158.51359,-0.65648848 h -9.83385 V -2.5110096 h 3.78225 V -14.687405 h -3.78225 v -1.659308 q 0.76865,0 1.64711,-0.122008 0.87846,-0.134209 1.32989,-0.378225 0.56123,-0.30502 0.87846,-0.76865 0.32942,-0.475831 0.37822,-1.268883 h 1.89112 v 16.3734694 h 3.70905 z"
         style="font-size:24.98723221px;fill:#ffe164;fill-opacity:1;stroke-width:0.26458332"
         id="path1754" />
      <path
         d="m 175.87532,-5.7686224 h -2.69638 v 5.11213392 h -2.34255 V -5.7686224 h -8.69917 V -8.5748057 L 170.934,-18.823475 h 2.24494 v 11.1027251 h 2.69638 z m -5.03893,-1.9521275 v -8.1989351 l -7.03986,8.1989351 z"
         style="font-size:24.98723221px;fill:#ffe164;fill-opacity:1;stroke-width:0.26458332"
         id="path1756" />
    </g>
    <g
       aria-label="E118"
       style="font-style:normal;font-variant:normal;font-weight:normal;font-stretch:normal;font-size:32.12644196px;line-height:1.25;font-family:sans-serif;-inkscape-font-specification:sans-serif;font-variant-ligatures:normal;font-variant-caps:normal;font-variant-numeric:normal;font-feature-settings:normal;text-align:start;letter-spacing:0px;word-spacing:0px;writing-mode:lr-tb;text-anchor:start;fill:#ffe164;fill-opacity:1;stroke:none;stroke-width:0.26458332"
       id="text1355">
      <path
         d="M 245.5447,-6.8800173 H 233.57572 V -25.047004 h 11.96898 v 2.14734 h -9.55322 v 4.977925 h 9.55322 v 2.147341 h -9.55322 v 6.7470405 h 9.55322 z"
         style="font-size:24.98723221px;fill:#ffe164;fill-opacity:1;stroke-width:0.26458332"
         id="path1768" />
      <path
         d="m 260.17346,-6.8800173 h -9.83385 v -1.8545211 h 3.78225 V -20.910934 h -3.78225 v -1.659308 q 0.76865,0 1.64711,-0.122008 0.87846,-0.134209 1.32989,-0.378225 0.56123,-0.30502 0.87846,-0.76865 0.32942,-0.475831 0.37822,-1.268883 h 1.89112 v 16.3734696 h 3.70905 z"
         style="font-size:24.98723221px;fill:#ffe164;fill-opacity:1;stroke-width:0.26458332"
         id="path1770" />
      <path
         d="m 276.0833,-6.8800173 h -9.83385 v -1.8545211 h 3.78225 V -20.910934 h -3.78225 v -1.659308 q 0.76865,0 1.64711,-0.122008 0.87846,-0.134209 1.32989,-0.378225 0.56123,-0.30502 0.87846,-0.76865 0.32942,-0.475831 0.37822,-1.268883 h 1.89112 v 16.3734696 h 3.70905 z"
         style="font-size:24.98723221px;fill:#ffe164;fill-opacity:1;stroke-width:0.26458332"
         id="path1772" />
      <path
         d="m 293.16441,-11.943348 q 0,2.3547538 -1.84232,3.9164558 -1.83012,1.561702 -4.6119,1.561702 -2.95259,0 -4.70951,-1.5250996 -1.74471,-1.5250996 -1.74471,-3.9042552 0,-1.512899 0.87846,-2.732978 0.87845,-1.232281 2.47676,-1.952128 v -0.07321 q -1.4641,-0.780851 -2.17174,-1.708111 -0.69545,-0.927261 -0.69545,-2.318152 0,-2.049734 1.68371,-3.416223 1.68371,-1.366489 4.28248,-1.366489 2.72078,0 4.34348,1.305485 1.62271,1.305485 1.62271,3.318617 0,1.23228 -0.76865,2.427959 -0.76865,1.183477 -2.25715,1.854521 v 0.0732 q 1.70811,0.732048 2.61097,1.805718 0.90286,1.073671 0.90286,2.732979 z m -2.89159,-8.869979 q 0,-1.305486 -1.01266,-2.074136 -1.00047,-0.780851 -2.56217,-0.780851 -1.5373,0 -2.52557,0.732048 -0.97606,0.732048 -0.97606,1.976529 0,0.878457 0.48803,1.5251 0.50024,0.634441 1.5007,1.134674 0.45143,0.219614 1.29329,0.573437 0.85405,0.353823 1.6593,0.585638 1.20788,-0.805252 1.67151,-1.671509 0.46363,-0.866256 0.46363,-2.00093 z m 0.37823,9.101794 q 0,-1.122473 -0.50024,-1.793517 -0.48803,-0.683245 -1.92772,-1.366489 -0.57344,-0.268418 -1.25668,-0.500233 -0.68325,-0.231815 -1.81792,-0.646642 -1.09807,0.597839 -1.76912,1.622706 -0.65884,1.024867 -0.65884,2.318151 0,1.647108 1.13467,2.7207779 1.13468,1.0736702 2.87939,1.0736702 1.78132,0 2.84279,-0.9150598 1.07367,-0.9150593 1.07367,-2.5133643 z"
         style="font-size:24.98723221px;fill:#ffe164;fill-opacity:1;stroke-width:0.26458332"
         id="path1774" />
    </g>
    <g
       aria-label="E107"
       style="font-style:normal;font-variant:normal;font-weight:normal;font-stretch:normal;font-size:32.12644196px;line-height:1.25;font-family:sans-serif;-inkscape-font-specification:sans-serif;font-variant-ligatures:normal;font-variant-caps:normal;font-variant-numeric:normal;font-feature-settings:normal;text-align:start;letter-spacing:0px;word-spacing:0px;writing-mode:lr-tb;text-anchor:start;fill:#ffe164;fill-opacity:1;stroke:none;stroke-width:0.26458332"
       id="text1359">
      <path
         d="M 245.43615,75.825043 H 233.46717 V 57.658056 h 11.96898 v 2.14734 h -9.55322 v 4.977925 h 9.55322 v 2.147341 h -9.55322 v 6.74704 h 9.55322 z"
         style="font-size:24.98723221px;fill:#ffe164;fill-opacity:1;stroke-width:0.26458332"
         id="path1777" />
      <path
         d="m 260.0649,75.825043 h -9.83384 v -1.854521 h 3.78225 V 61.794126 h -3.78225 v -1.659308 q 0.76865,0 1.64711,-0.122008 0.87846,-0.134209 1.32989,-0.378225 0.56123,-0.30502 0.87845,-0.76865 0.32943,-0.475831 0.37823,-1.268883 h 1.89112 v 16.37347 h 3.70904 z"
         style="font-size:24.98723221px;fill:#ffe164;fill-opacity:1;stroke-width:0.26458332"
         id="path1779" />
      <path
         d="m 276.98741,66.735449 q 0,4.89252 -1.5373,7.186269 -1.5251,2.281549 -4.74611,2.281549 -3.26981,0 -4.78271,-2.318151 -1.5007,-2.318151 -1.5007,-7.125265 0,-4.843717 1.5251,-7.149667 1.5251,-2.318152 4.75831,-2.318152 3.26981,0 4.77051,2.354754 1.5129,2.342553 1.5129,7.088663 z m -3.20881,5.539162 q 0.42703,-0.988265 0.57344,-2.318152 0.15861,-1.342087 0.15861,-3.22101 0,-1.854521 -0.15861,-3.22101 -0.14641,-1.36649 -0.58564,-2.318152 -0.42703,-0.939461 -1.17128,-1.415292 -0.73204,-0.475831 -1.89112,-0.475831 -1.14687,0 -1.90332,0.475831 -0.74425,0.475831 -1.18348,1.439694 -0.41483,0.902859 -0.57344,2.354754 -0.14641,1.451894 -0.14641,3.184408 0,1.903324 0.13421,3.184408 0.13421,1.281083 0.57344,2.293749 0.40262,0.951663 1.13467,1.451895 0.74425,0.500233 1.96433,0.500233 1.14688,0 1.90332,-0.475831 0.75645,-0.475831 1.17128,-1.439694 z"
         style="font-size:24.98723221px;fill:#ffe164;fill-opacity:1;stroke-width:0.26458332"
         id="path1781" />
      <path
         d="m 292.97046,60.378834 -8.22334,15.446209 h -2.61097 l 8.74797,-16.031848 h -10.34628 v -2.135139 h 12.43262 z"
         style="font-size:24.98723221px;fill:#ffe164;fill-opacity:1;stroke-width:0.26458332"
         id="path1783" />
    </g>
    <path
       inkscape:connector-curvature="0"
       id="path1361"
       d="m 428.94994,-163.7243 h 26.0397 v 51.34302 l -19.72313,-0.21002 v 8.47826 l -6.18766,-2e-5 z"
       style="fill:#9ee8d1;fill-opacity:1;stroke:#c1c1c1;stroke-width:2;stroke-linecap:butt;stroke-linejoin:miter;stroke-miterlimit:4;stroke-dasharray:none;stroke-opacity:1" />
    <path
       inkscape:connector-curvature="0"
       id="path1363"
       d="m 464.08534,-163.7243 h 43.67581 v 59.62482 l -22.98727,-0.014 v -8.44396 l -20.68854,0.17562 z"
       style="fill:#9ee8d1;fill-opacity:1;stroke:#c1c1c1;stroke-width:2;stroke-linecap:butt;stroke-linejoin:miter;stroke-miterlimit:4;stroke-dasharray:none;stroke-opacity:1" />
    <path
       style="opacity:1;fill:none;stroke:#d3ffff;stroke-width:3;stroke-linecap:butt;stroke-linejoin:miter;stroke-miterlimit:4;stroke-dasharray:none;stroke-opacity:1"
       d="m 435.16622,-113.67287 v 8.59655"
       id="path1365"
       inkscape:connector-curvature="0" />
    <path
       inkscape:connector-curvature="0"
       id="path1367"
       d="m 484.31365,-113.59266 v 8.56174"
       style="opacity:1;fill:none;stroke:#d3ffff;stroke-width:3;stroke-linecap:butt;stroke-linejoin:miter;stroke-miterlimit:4;stroke-dasharray:none;stroke-opacity:1" />
    <g
       aria-label="Restrooms"
       style="font-style:normal;font-variant:normal;font-weight:normal;font-stretch:normal;font-size:32.12644196px;line-height:1.25;font-family:sans-serif;-inkscape-font-specification:sans-serif;font-variant-ligatures:normal;font-variant-caps:normal;font-variant-numeric:normal;font-feature-settings:normal;text-align:start;letter-spacing:0px;word-spacing:0px;writing-mode:lr-tb;text-anchor:start;opacity:1;fill:#727272;fill-opacity:1;stroke:none;stroke-width:0.26458332"
       id="text1371">
      <path
         d="m 244.65867,156.06476 h -1.34383 l -2.604,-3.09552 h -1.45886 v 3.09552 h -1.03533 v -7.78585 h 2.18046 q 0.7059,0 1.1765,0.0941 0.4706,0.0889 0.84709,0.32419 0.42354,0.26667 0.65884,0.67453 0.24053,0.40263 0.24053,1.02487 0,0.84185 -0.42354,1.4118 -0.42354,0.56473 -1.16605,0.85232 z m -2.42099,-5.59494 q 0,-0.33465 -0.12026,-0.59087 -0.11504,-0.26144 -0.38694,-0.43922 -0.22484,-0.15164 -0.53335,-0.20916 -0.3085,-0.0627 -0.72682,-0.0627 h -1.21833 v 2.93865 h 1.04578 q 0.49152,0 0.85754,-0.0837 0.36602,-0.0889 0.62224,-0.32419 0.2353,-0.21962 0.34511,-0.50198 0.11503,-0.28759 0.11503,-0.72682 z"
         style="font-size:10.70881367px;fill:#727272;fill-opacity:1;stroke-width:0.26458332"
         id="path1686" />
      <path
         d="m 250.22223,153.24637 h -4.30339 q 0,0.53858 0.1621,0.94121 0.16209,0.3974 0.44445,0.65361 0.27191,0.25099 0.64316,0.37648 0.37648,0.1255 0.82617,0.1255 0.59609,0 1.19742,-0.2353 0.60655,-0.24053 0.86277,-0.4706 h 0.0523 v 1.07192 q -0.49675,0.20916 -1.01441,0.35034 -0.51766,0.14118 -1.08761,0.14118 -1.45364,0 -2.26935,-0.78434 -0.81571,-0.78956 -0.81571,-2.23797 0,-1.43272 0.7791,-2.27458 0.78434,-0.84185 2.0602,-0.84185 1.18173,0 1.81966,0.69021 0.64315,0.69022 0.64315,1.96085 z m -0.95689,-0.75296 q -0.005,-0.77388 -0.39217,-1.19742 -0.38171,-0.42354 -1.16604,-0.42354 -0.78957,0 -1.26017,0.46537 -0.46537,0.46537 -0.52812,1.15559 z"
         style="font-size:10.70881367px;fill:#727272;fill-opacity:1;stroke-width:0.26458332"
         id="path1688" />
      <path
         d="m 255.88515,154.38105 q 0,0.80002 -0.66407,1.31246 -0.65885,0.51243 -1.80398,0.51243 -0.64838,0 -1.19219,-0.15164 -0.53858,-0.15687 -0.9046,-0.33988 v -1.1033 h 0.0523 q 0.46537,0.35034 1.03532,0.55949 0.56995,0.20393 1.09284,0.20393 0.64839,0 1.01441,-0.20915 0.36603,-0.20916 0.36603,-0.65885 0,-0.34511 -0.1987,-0.52289 -0.1987,-0.17778 -0.76342,-0.30328 -0.20916,-0.0471 -0.54904,-0.1098 -0.33465,-0.0627 -0.61178,-0.13595 -0.76865,-0.20393 -1.09285,-0.5961 -0.31896,-0.3974 -0.31896,-0.97258 0,-0.36079 0.14641,-0.67976 0.15164,-0.31896 0.45492,-0.56995 0.29281,-0.24576 0.7425,-0.38694 0.45492,-0.14641 1.01441,-0.14641 0.52289,0 1.05624,0.13072 0.53858,0.1255 0.89415,0.30851 v 1.05101 h -0.0523 q -0.37649,-0.27713 -0.91506,-0.46537 -0.53858,-0.19347 -1.05624,-0.19347 -0.53858,0 -0.90984,0.20916 -0.37125,0.20392 -0.37125,0.61178 0,0.36079 0.22485,0.54381 0.21961,0.18301 0.71113,0.29804 0.2719,0.0627 0.60655,0.1255 0.33988,0.0627 0.56472,0.11503 0.68499,0.15687 1.05624,0.53858 0.37126,0.38694 0.37126,1.02487 z"
         style="font-size:10.70881367px;fill:#727272;fill-opacity:1;stroke-width:0.26458332"
         id="path1690" />
      <path
         d="m 260.32972,156.01247 q -0.27713,0.0732 -0.60655,0.12026 -0.32419,0.0471 -0.58041,0.0471 -0.89414,0 -1.35952,-0.48106 -0.46537,-0.48106 -0.46537,-1.54252 v -3.10598 h -0.66407 v -0.82617 h 0.66407 v -1.67848 h 0.98304 v 1.67848 h 2.02881 v 0.82617 h -2.02881 v 2.66152 q 0,0.46014 0.0209,0.72159 0.0209,0.25621 0.14641,0.48106 0.11504,0.20915 0.31374,0.3085 0.20392,0.0941 0.61701,0.0941 0.24053,0 0.50197,-0.068 0.26145,-0.0732 0.37648,-0.12027 h 0.0523 z"
         style="font-size:10.70881367px;fill:#727272;fill-opacity:1;stroke-width:0.26458332"
         id="path1692" />
      <path
         d="m 265.16647,151.29599 h -0.0523 q -0.21962,-0.0523 -0.42877,-0.0732 -0.20393,-0.0261 -0.48629,-0.0261 -0.45492,0 -0.87846,0.20393 -0.42354,0.1987 -0.81571,0.51766 v 4.14653 h -0.98304 v -5.8407 h 0.98304 v 0.86277 q 0.58564,-0.4706 1.0301,-0.66407 0.44968,-0.1987 0.91506,-0.1987 0.25621,0 0.37125,0.0157 0.11503,0.0105 0.34511,0.0471 z"
         style="font-size:10.70881367px;fill:#727272;fill-opacity:1;stroke-width:0.26458332"
         id="path1694" />
      <path
         d="m 271.08037,153.14702 q 0,1.4275 -0.73205,2.25367 -0.73205,0.82616 -1.96084,0.82616 -1.23925,0 -1.9713,-0.82616 -0.72682,-0.82617 -0.72682,-2.25367 0,-1.42749 0.72682,-2.25366 0.73205,-0.83139 1.9713,-0.83139 1.22879,0 1.96084,0.83139 0.73205,0.82617 0.73205,2.25366 z m -1.01441,0 q 0,-1.13467 -0.44446,-1.68371 -0.44446,-0.55426 -1.23402,-0.55426 -0.80003,0 -1.24448,0.55426 -0.43923,0.54904 -0.43923,1.68371 0,1.09808 0.44446,1.66803 0.44445,0.56472 1.23925,0.56472 0.78433,0 1.22879,-0.55949 0.44969,-0.56473 0.44969,-1.67326 z"
         style="font-size:10.70881367px;fill:#727272;fill-opacity:1;stroke-width:0.26458332"
         id="path1696" />
      <path
         d="m 277.58514,153.14702 q 0,1.4275 -0.73205,2.25367 -0.73205,0.82616 -1.96084,0.82616 -1.23926,0 -1.9713,-0.82616 -0.72682,-0.82617 -0.72682,-2.25367 0,-1.42749 0.72682,-2.25366 0.73204,-0.83139 1.9713,-0.83139 1.22879,0 1.96084,0.83139 0.73205,0.82617 0.73205,2.25366 z m -1.01441,0 q 0,-1.13467 -0.44446,-1.68371 -0.44446,-0.55426 -1.23402,-0.55426 -0.80003,0 -1.24449,0.55426 -0.43922,0.54904 -0.43922,1.68371 0,1.09808 0.44445,1.66803 0.44446,0.56472 1.23926,0.56472 0.78433,0 1.22879,-0.55949 0.44969,-0.56473 0.44969,-1.67326 z"
         style="font-size:10.70881367px;fill:#727272;fill-opacity:1;stroke-width:0.26458332"
         id="path1698" />
      <path
         d="m 287.63511,156.06476 h -0.98304 v -3.32559 q 0,-0.37648 -0.0366,-0.72682 -0.0314,-0.35034 -0.14118,-0.55949 -0.12027,-0.22485 -0.34511,-0.33988 -0.22484,-0.11504 -0.64838,-0.11504 -0.41309,0 -0.82617,0.20916 -0.41309,0.20393 -0.82617,0.52289 0.0157,0.12026 0.0261,0.28236 0.0105,0.15687 0.0105,0.31374 v 3.73867 h -0.98303 v -3.32559 q 0,-0.38694 -0.0366,-0.73205 -0.0314,-0.35034 -0.14118,-0.55949 -0.12026,-0.22485 -0.34511,-0.33465 -0.22484,-0.11504 -0.64838,-0.11504 -0.40263,0 -0.81048,0.1987 -0.40263,0.1987 -0.80526,0.5072 v 4.36092 h -0.98303 v -5.8407 h 0.98303 v 0.64839 q 0.46015,-0.38171 0.91506,-0.5961 0.46015,-0.21438 0.97781,-0.21438 0.5961,0 1.00918,0.25098 0.41831,0.25099 0.62224,0.69545 0.5961,-0.50198 1.08762,-0.72159 0.49151,-0.22484 1.05101,-0.22484 0.96212,0 1.41703,0.58563 0.46015,0.58041 0.46015,1.6262 z"
         style="font-size:10.70881367px;fill:#727272;fill-opacity:1;stroke-width:0.26458332"
         id="path1700" />
      <path
         d="m 293.70064,154.38105 q 0,0.80002 -0.66407,1.31246 -0.65884,0.51243 -1.80397,0.51243 -0.64839,0 -1.19219,-0.15164 -0.53858,-0.15687 -0.90461,-0.33988 v -1.1033 h 0.0523 q 0.46538,0.35034 1.03533,0.55949 0.56995,0.20393 1.09284,0.20393 0.64839,0 1.01441,-0.20915 0.36602,-0.20916 0.36602,-0.65885 0,-0.34511 -0.1987,-0.52289 -0.19869,-0.17778 -0.76342,-0.30328 -0.20915,-0.0471 -0.54903,-0.1098 -0.33465,-0.0627 -0.61179,-0.13595 -0.76865,-0.20393 -1.09284,-0.5961 -0.31896,-0.3974 -0.31896,-0.97258 0,-0.36079 0.14641,-0.67976 0.15164,-0.31896 0.45491,-0.56995 0.29282,-0.24576 0.74251,-0.38694 0.45491,-0.14641 1.01441,-0.14641 0.52289,0 1.05624,0.13072 0.53858,0.1255 0.89414,0.30851 v 1.05101 h -0.0523 q -0.37648,-0.27713 -0.91506,-0.46537 -0.53857,-0.19347 -1.05624,-0.19347 -0.53857,0 -0.90983,0.20916 -0.37125,0.20392 -0.37125,0.61178 0,0.36079 0.22484,0.54381 0.21962,0.18301 0.71113,0.29804 0.27191,0.0627 0.60656,0.1255 0.33988,0.0627 0.56472,0.11503 0.68499,0.15687 1.05624,0.53858 0.37125,0.38694 0.37125,1.02487 z"
         style="font-size:10.70881367px;fill:#727272;fill-opacity:1;stroke-width:0.26458332"
         id="path1702" />
    </g>
    <g
       aria-label="E118A"
       style="font-style:normal;font-variant:normal;font-weight:normal;font-stretch:normal;font-size:7.13920927px;line-height:1.25;font-family:sans-serif;-inkscape-font-specification:sans-serif;font-variant-ligatures:normal;font-variant-caps:normal;font-variant-numeric:normal;font-feature-settings:normal;text-align:start;letter-spacing:0px;word-spacing:0px;writing-mode:lr-tb;text-anchor:start;fill:#ffe164;fill-opacity:1;stroke:none;stroke-width:0.26458332"
       id="text1375">
      <path
         d="m 313.66374,-22.972111 h -3.41971 v -5.190567 h 3.41971 v 0.613525 h -2.72949 v 1.422265 h 2.72949 v 0.613526 h -2.72949 v 1.927725 h 2.72949 z"
         style="font-size:7.13920927px;fill:#ffe164;fill-opacity:1;stroke-width:0.26458332"
         id="path1795" />
      <path
         d="m 317.84339,-22.972111 h -2.80967 v -0.529863 h 1.08064 v -3.47897 h -1.08064 v -0.474088 q 0.21961,0 0.4706,-0.03486 0.25099,-0.03834 0.37997,-0.108064 0.16035,-0.08715 0.25098,-0.219614 0.0941,-0.135952 0.10807,-0.362538 h 0.54032 v 4.678134 h 1.05973 z"
         style="font-size:7.13920927px;fill:#ffe164;fill-opacity:1;stroke-width:0.26458332"
         id="path1797" />
      <path
         d="m 322.38906,-22.972111 h -2.80967 v -0.529863 h 1.08064 v -3.47897 h -1.08064 v -0.474088 q 0.21961,0 0.4706,-0.03486 0.25099,-0.03834 0.37997,-0.108064 0.16035,-0.08715 0.25098,-0.219614 0.0941,-0.135952 0.10807,-0.362538 h 0.54032 v 4.678134 h 1.05973 z"
         style="font-size:7.13920927px;fill:#ffe164;fill-opacity:1;stroke-width:0.26458332"
         id="path1799" />
      <path
         d="m 327.26937,-24.418777 q 0,0.672787 -0.52637,1.118988 -0.52289,0.4462 -1.31769,0.4462 -0.8436,0 -1.34557,-0.435742 -0.49849,-0.435743 -0.49849,-1.115502 0,-0.432257 0.25098,-0.780851 0.25099,-0.35208 0.70765,-0.557751 v -0.02091 q -0.41831,-0.223101 -0.6205,-0.488032 -0.1987,-0.264932 -0.1987,-0.662329 0,-0.585638 0.48106,-0.976064 0.48106,-0.390425 1.22357,-0.390425 0.77737,0 1.241,0.372995 0.46363,0.372996 0.46363,0.948177 0,0.35208 -0.21962,0.693702 -0.21961,0.338136 -0.6449,0.529863 v 0.02092 q 0.48803,0.209156 0.74599,0.515919 0.25796,0.306763 0.25796,0.780851 z m -0.82616,-2.53428 q 0,-0.372995 -0.28934,-0.59261 -0.28585,-0.2231 -0.73205,-0.2231 -0.43922,0 -0.72159,0.209157 -0.27887,0.209156 -0.27887,0.564722 0,0.250988 0.13944,0.435743 0.14292,0.181269 0.42877,0.324193 0.12898,0.06275 0.36951,0.163839 0.24401,0.101092 0.47409,0.167325 0.3451,-0.230072 0.47757,-0.477574 0.13247,-0.247502 0.13247,-0.571695 z m 0.10806,2.600513 q 0,-0.320706 -0.14292,-0.512433 -0.13944,-0.195213 -0.55078,-0.390426 -0.16384,-0.07669 -0.35905,-0.142923 -0.19522,-0.06623 -0.51941,-0.184755 -0.31374,0.170811 -0.50546,0.46363 -0.18824,0.292819 -0.18824,0.662329 0,0.470602 0.32419,0.777365 0.32419,0.306763 0.82268,0.306763 0.50895,0 0.81223,-0.261446 0.30676,-0.261445 0.30676,-0.718104 z"
         style="font-size:7.13920927px;fill:#ffe164;fill-opacity:1;stroke-width:0.26458332"
         id="path1801" />
      <path
         d="m 332.49132,-22.972111 h -0.73554 l -0.50895,-1.446666 h -2.24494 l -0.50895,1.446666 h -0.70067 l 1.88938,-5.190567 h 0.92029 z m -1.45713,-2.039276 -0.90983,-2.548223 -0.91332,2.548223 z"
         style="font-size:7.13920927px;fill:#ffe164;fill-opacity:1;stroke-width:0.26458332"
         id="path1803" />
    </g>
    <g
       aria-label="E122A"
       style="font-style:normal;font-variant:normal;font-weight:normal;font-stretch:normal;font-size:32.12644196px;line-height:1.25;font-family:sans-serif;-inkscape-font-specification:sans-serif;font-variant-ligatures:normal;font-variant-caps:normal;font-variant-numeric:normal;font-feature-settings:normal;text-align:start;letter-spacing:0px;word-spacing:0px;writing-mode:lr-tb;text-anchor:start;fill:#ffe164;fill-opacity:1;stroke:none;stroke-width:0.26458332"
       id="text1379">
      <path
         d="m 313.66377,12.32012 h -3.41971 V 7.1295522 h 3.41971 V 7.743078 h -2.72949 v 1.4222643 h 2.72949 v 0.6135258 h -2.72949 v 1.9277259 h 2.72949 z"
         style="font-size:7.13920927px;fill:#ffe164;fill-opacity:1;stroke-width:0.26458332"
         id="path1806" />
      <path
         d="m 317.84342,12.32012 h -2.80967 v -0.529863 h 1.08064 V 8.3112865 h -1.08064 V 7.8371984 q 0.21961,0 0.4706,-0.034859 0.25099,-0.038345 0.37997,-0.1080642 0.16035,-0.087149 0.25099,-0.2196144 0.0941,-0.1359517 0.10806,-0.3625379 h 0.54032 v 4.6781345 h 1.05973 z"
         style="font-size:7.13920927px;fill:#ffe164;fill-opacity:1;stroke-width:0.26458332"
         id="path1808" />
      <path
         d="m 322.68539,12.32012 h -3.51383 v -0.728562 q 0.36603,-0.313735 0.73205,-0.62747 0.36951,-0.313734 0.68673,-0.623983 0.6693,-0.6483854 0.9168,-1.0283531 0.2475,-0.3834536 0.2475,-0.8261683 0,-0.4043692 -0.26841,-0.6309555 -0.26493,-0.2300722 -0.74251,-0.2300722 -0.31722,0 -0.68673,0.1115502 -0.36951,0.1115501 -0.72159,0.3416223 h -0.0349 V 7.3456806 q 0.2475,-0.122008 0.65884,-0.2231003 0.41483,-0.1010923 0.80177,-0.1010923 0.79828,0 1.25145,0.3869395 0.45318,0.3834537 0.45318,1.0422967 0,0.2963051 -0.0767,0.5542648 -0.0732,0.2544738 -0.21962,0.4845459 -0.13595,0.2161284 -0.3207,0.425285 -0.18127,0.2091561 -0.44272,0.4636301 -0.373,0.366024 -0.77039,0.711132 -0.3974,0.341623 -0.74251,0.634442 h 2.79224 z"
         style="font-size:7.13920927px;fill:#ffe164;fill-opacity:1;stroke-width:0.26458332"
         id="path1810" />
      <path
         d="m 327.23106,12.32012 h -3.51383 v -0.728562 q 0.36602,-0.313735 0.73205,-0.62747 0.36951,-0.313734 0.68673,-0.623983 0.6693,-0.6483854 0.9168,-1.0283531 0.2475,-0.3834536 0.2475,-0.8261683 0,-0.4043692 -0.26842,-0.6309555 -0.26493,-0.2300722 -0.7425,-0.2300722 -0.31722,0 -0.68673,0.1115502 -0.36951,0.1115501 -0.72159,0.3416223 h -0.0349 V 7.3456806 q 0.2475,-0.122008 0.65884,-0.2231003 0.41483,-0.1010923 0.80177,-0.1010923 0.79828,0 1.25145,0.3869395 0.45317,0.3834537 0.45317,1.0422967 0,0.2963051 -0.0767,0.5542648 -0.0732,0.2544738 -0.21961,0.4845459 -0.13595,0.2161284 -0.32071,0.425285 -0.18127,0.2091561 -0.44271,0.4636301 -0.373,0.366024 -0.7704,0.711132 -0.39739,0.341623 -0.7425,0.634442 h 2.79224 z"
         style="font-size:7.13920927px;fill:#ffe164;fill-opacity:1;stroke-width:0.26458332"
         id="path1812" />
      <path
         d="m 332.49135,12.32012 h -0.73554 l -0.50894,-1.446666 h -2.24495 l -0.50895,1.446666 h -0.70067 l 1.88938,-5.1905678 h 0.92029 z m -1.45713,-2.039276 -0.90983,-2.5482238 -0.91332,2.5482238 z"
         style="font-size:7.13920927px;fill:#ffe164;fill-opacity:1;stroke-width:0.26458332"
         id="path1814" />
    </g>
    <g
       aria-label="E107A"
       style="font-style:normal;font-variant:normal;font-weight:normal;font-stretch:normal;font-size:32.12644196px;line-height:1.25;font-family:sans-serif;-inkscape-font-specification:sans-serif;font-variant-ligatures:normal;font-variant-caps:normal;font-variant-numeric:normal;font-feature-settings:normal;text-align:start;letter-spacing:0px;word-spacing:0px;writing-mode:lr-tb;text-anchor:start;fill:#ffe164;fill-opacity:1;stroke:none;stroke-width:0.26458332"
       id="text1383">
      <path
         d="m 313.55394,62.649509 h -3.41971 v -5.190567 h 3.41971 v 0.613526 h -2.72949 v 1.422264 h 2.72949 v 0.613526 h -2.72949 v 1.927726 h 2.72949 z"
         style="font-size:7.13920927px;fill:#ffe164;fill-opacity:1;stroke-width:0.26458332"
         id="path1817" />
      <path
         d="m 317.73358,62.649509 h -2.80967 v -0.529863 h 1.08065 v -3.47897 h -1.08065 v -0.474088 q 0.21962,0 0.47061,-0.03486 0.25098,-0.03835 0.37996,-0.108065 0.16036,-0.08715 0.25099,-0.219614 0.0941,-0.135952 0.10807,-0.362538 h 0.54032 v 4.678134 h 1.05972 z"
         style="font-size:7.13920927px;fill:#ffe164;fill-opacity:1;stroke-width:0.26458332"
         id="path1819" />
      <path
         d="m 322.56859,60.052483 q 0,1.397862 -0.43923,2.053219 -0.43575,0.651872 -1.35603,0.651872 -0.93424,0 -1.36649,-0.662329 -0.42877,-0.662329 -0.42877,-2.03579 0,-1.383919 0.43574,-2.042763 0.43574,-0.662329 1.35952,-0.662329 0.93423,0 1.363,0.672787 0.43226,0.669301 0.43226,2.025333 z m -0.91681,1.582617 q 0.12201,-0.282361 0.16384,-0.662329 0.0453,-0.383453 0.0453,-0.920288 0,-0.529864 -0.0453,-0.920289 -0.0418,-0.390426 -0.16732,-0.662329 -0.12201,-0.268418 -0.33465,-0.404369 -0.20916,-0.135952 -0.54032,-0.135952 -0.32768,0 -0.54381,0.135952 -0.21264,0.135951 -0.33814,0.411341 -0.11852,0.25796 -0.16384,0.672787 -0.0418,0.414827 -0.0418,0.909831 0,0.543806 0.0384,0.90983 0.0383,0.366024 0.16384,0.655357 0.11503,0.271904 0.32419,0.414828 0.21264,0.142923 0.56124,0.142923 0.32767,0 0.5438,-0.135952 0.21613,-0.135951 0.33465,-0.411341 z"
         style="font-size:7.13920927px;fill:#ffe164;fill-opacity:1;stroke-width:0.26458332"
         id="path1821" />
      <path
         d="m 327.13517,58.236307 -2.34953,4.413202 h -0.74599 l 2.49942,-4.580527 h -2.95608 v -0.61004 h 3.55218 z"
         style="font-size:7.13920927px;fill:#ffe164;fill-opacity:1;stroke-width:0.26458332"
         id="path1823" />
      <path
         d="m 332.38151,62.649509 h -0.73553 l -0.50895,-1.446666 h -2.24494 l -0.50895,1.446666 h -0.70068 l 1.88938,-5.190567 h 0.92029 z m -1.45712,-2.039276 -0.90983,-2.548223 -0.91332,2.548223 z"
         style="font-size:7.13920927px;fill:#ffe164;fill-opacity:1;stroke-width:0.26458332"
         id="path1825" />
    </g>
    <g
       aria-label="E122"
       style="font-style:normal;font-variant:normal;font-weight:normal;font-stretch:normal;font-size:32.12644196px;line-height:1.25;font-family:sans-serif;-inkscape-font-specification:sans-serif;font-variant-ligatures:normal;font-variant-caps:normal;font-variant-numeric:normal;font-feature-settings:normal;text-align:start;letter-spacing:0px;word-spacing:0px;writing-mode:lr-tb;text-anchor:start;fill:#ffe164;fill-opacity:1;stroke:none;stroke-width:0.26458332"
       id="text1387">
      <path
         d="M 361.8789,-7.5514278 H 349.90992 V -25.718415 h 11.96898 v 2.147341 h -9.55323 v 4.977925 h 9.55323 v 2.14734 h -9.55323 v 6.7470409 h 9.55323 z"
         style="font-size:24.98723221px;fill:#ffe164;fill-opacity:1;stroke-width:0.26458332"
         id="path1786" />
      <path
         d="m 376.50765,-7.5514278 h -9.83384 V -9.405949 h 3.78225 v -12.176395 h -3.78225 v -1.659309 q 0.76865,0 1.64711,-0.122008 0.87846,-0.134208 1.32989,-0.378224 0.56123,-0.30502 0.87845,-0.768651 0.32942,-0.475831 0.37823,-1.268883 h 1.89112 v 16.37347 h 3.70904 z"
         style="font-size:24.98723221px;fill:#ffe164;fill-opacity:1;stroke-width:0.26458332"
         id="path1788" />
      <path
         d="m 393.45456,-7.5514278 h -12.2984 v -2.5499662 q 1.28108,-1.098072 2.56217,-2.196144 1.29328,-1.098072 2.40355,-2.183943 2.34256,-2.269348 3.20881,-3.599235 0.86626,-1.342087 0.86626,-2.891589 0,-1.415292 -0.93946,-2.208344 -0.92726,-0.805252 -2.59877,-0.805252 -1.11028,0 -2.40356,0.390425 -1.29328,0.390426 -2.52556,1.195678 h -0.12201 v -2.562167 q 0.86625,-0.427028 2.30595,-0.780851 1.45189,-0.353823 2.80618,-0.353823 2.79398,0 4.38009,1.354288 1.5861,1.342088 1.5861,3.648039 0,1.037067 -0.26842,1.939926 -0.25621,0.890658 -0.76865,1.695911 -0.47583,0.756449 -1.12247,1.488497 -0.63444,0.732048 -1.5495,1.622706 -1.30549,1.281084 -2.69638,2.488963 -1.39089,1.195678 -2.59877,2.2205449 h 9.77284 z"
         style="font-size:24.98723221px;fill:#ffe164;fill-opacity:1;stroke-width:0.26458332"
         id="path1790" />
      <path
         d="M 409.3644,-7.5514278 H 397.066 v -2.5499662 q 1.28108,-1.098072 2.56216,-2.196144 1.29329,-1.098072 2.40356,-2.183943 2.34256,-2.269348 3.20881,-3.599235 0.86626,-1.342087 0.86626,-2.891589 0,-1.415292 -0.93946,-2.208344 -0.92726,-0.805252 -2.59877,-0.805252 -1.11028,0 -2.40356,0.390425 -1.29328,0.390426 -2.52556,1.195678 h -0.12201 v -2.562167 q 0.86625,-0.427028 2.30595,-0.780851 1.45189,-0.353823 2.80618,-0.353823 2.79398,0 4.38009,1.354288 1.5861,1.342088 1.5861,3.648039 0,1.037067 -0.26842,1.939926 -0.25621,0.890658 -0.76865,1.695911 -0.47583,0.756449 -1.12247,1.488497 -0.63444,0.732048 -1.5495,1.622706 -1.30549,1.281084 -2.69638,2.488963 -1.39089,1.195678 -2.59877,2.2205449 h 9.77284 z"
         style="font-size:24.98723221px;fill:#ffe164;fill-opacity:1;stroke-width:0.26458332"
         id="path1792" />
    </g>
    <g
       aria-label="Restrooms"
       style="font-style:normal;font-variant:normal;font-weight:normal;font-stretch:normal;font-size:32.12644196px;line-height:1.25;font-family:sans-serif;-inkscape-font-specification:sans-serif;font-variant-ligatures:normal;font-variant-caps:normal;font-variant-numeric:normal;font-feature-settings:normal;text-align:start;letter-spacing:0px;word-spacing:0px;writing-mode:lr-tb;text-anchor:start;opacity:1;fill:#727272;fill-opacity:1;stroke:none;stroke-width:0.26458332"
       id="text2033">
      <path
         d="m 441.24192,-133.83813 h -1.34383 l -2.604,-3.09552 h -1.45886 v 3.09552 h -1.03533 v -7.78586 h 2.18046 q 0.7059,0 1.1765,0.0941 0.47061,0.0889 0.84709,0.3242 0.42354,0.26667 0.65884,0.67453 0.24053,0.40262 0.24053,1.02486 0,0.84186 -0.42354,1.41181 -0.42354,0.56472 -1.16605,0.85231 z m -2.42098,-5.59494 q 0,-0.33465 -0.12027,-0.59087 -0.11503,-0.26144 -0.38694,-0.43923 -0.22484,-0.15164 -0.53335,-0.20915 -0.3085,-0.0627 -0.72682,-0.0627 h -1.21833 v 2.93865 h 1.04578 q 0.49152,0 0.85754,-0.0837 0.36603,-0.0889 0.62224,-0.3242 0.2353,-0.21961 0.34511,-0.50197 0.11504,-0.28759 0.11504,-0.72682 z"
         style="font-size:10.70881367px;fill:#727272;fill-opacity:1;stroke-width:0.26458332"
         id="path1667" />
      <path
         d="m 446.80549,-136.65652 h -4.3034 q 0,0.53858 0.1621,0.94121 0.16209,0.39739 0.44445,0.65361 0.27191,0.25099 0.64316,0.37648 0.37648,0.1255 0.82617,0.1255 0.5961,0 1.19742,-0.23531 0.60655,-0.24053 0.86277,-0.4706 h 0.0523 v 1.07193 q -0.49675,0.20916 -1.01441,0.35034 -0.51766,0.14118 -1.08761,0.14118 -1.45364,0 -2.26935,-0.78434 -0.81571,-0.78957 -0.81571,-2.23797 0,-1.43273 0.77911,-2.27458 0.78433,-0.84186 2.06019,-0.84186 1.18173,0 1.81966,0.69022 0.64316,0.69022 0.64316,1.96084 z m -0.95689,-0.75296 q -0.005,-0.77388 -0.39217,-1.19742 -0.38171,-0.42355 -1.16605,-0.42355 -0.78957,0 -1.26017,0.46538 -0.46537,0.46537 -0.52812,1.15559 z"
         style="font-size:10.70881367px;fill:#727272;fill-opacity:1;stroke-width:0.26458332"
         id="path1669" />
      <path
         d="m 452.4684,-135.52184 q 0,0.80002 -0.66407,1.31245 -0.65885,0.51244 -1.80398,0.51244 -0.64838,0 -1.19219,-0.15164 -0.53858,-0.15687 -0.9046,-0.33988 v -1.1033 h 0.0523 q 0.46537,0.35033 1.03532,0.55949 0.56995,0.20393 1.09284,0.20393 0.64839,0 1.01441,-0.20916 0.36603,-0.20915 0.36603,-0.65884 0,-0.34511 -0.1987,-0.52289 -0.1987,-0.17779 -0.76342,-0.30328 -0.20916,-0.0471 -0.54904,-0.10981 -0.33465,-0.0627 -0.61178,-0.13595 -0.76865,-0.20393 -1.09284,-0.59609 -0.31897,-0.3974 -0.31897,-0.97258 0,-0.3608 0.14641,-0.67976 0.15164,-0.31896 0.45492,-0.56995 0.29282,-0.24576 0.7425,-0.38694 0.45492,-0.14641 1.01441,-0.14641 0.52289,0 1.05624,0.13072 0.53858,0.1255 0.89415,0.30851 v 1.05101 h -0.0523 q -0.37648,-0.27713 -0.91506,-0.46537 -0.53858,-0.19347 -1.05624,-0.19347 -0.53858,0 -0.90983,0.20915 -0.37126,0.20393 -0.37126,0.61179 0,0.36079 0.22485,0.5438 0.21961,0.18301 0.71113,0.29805 0.2719,0.0627 0.60655,0.12549 0.33988,0.0627 0.56473,0.11504 0.68498,0.15687 1.05624,0.53858 0.37125,0.38694 0.37125,1.02487 z"
         style="font-size:10.70881367px;fill:#727272;fill-opacity:1;stroke-width:0.26458332"
         id="path1671" />
      <path
         d="m 456.91298,-133.89042 q -0.27714,0.0732 -0.60656,0.12026 -0.32419,0.0471 -0.58041,0.0471 -0.89414,0 -1.35952,-0.48106 -0.46537,-0.48106 -0.46537,-1.54253 v -3.10597 h -0.66407 v -0.82617 h 0.66407 v -1.67848 h 0.98304 v 1.67848 h 2.02882 v 0.82617 h -2.02882 v 2.66151 q 0,0.46015 0.0209,0.72159 0.0209,0.25622 0.14641,0.48106 0.11504,0.20916 0.31374,0.30851 0.20392,0.0941 0.61701,0.0941 0.24053,0 0.50197,-0.068 0.26145,-0.0732 0.37649,-0.12026 h 0.0523 z"
         style="font-size:10.70881367px;fill:#727272;fill-opacity:1;stroke-width:0.26458332"
         id="path1673" />
      <path
         d="m 461.74972,-138.6069 h -0.0523 q -0.21961,-0.0523 -0.42877,-0.0732 -0.20393,-0.0261 -0.48629,-0.0261 -0.45492,0 -0.87846,0.20392 -0.42354,0.1987 -0.81571,0.51767 v 4.14653 h -0.98303 v -5.8407 h 0.98303 v 0.86277 q 0.58564,-0.4706 1.0301,-0.66407 0.44968,-0.1987 0.91506,-0.1987 0.25621,0 0.37125,0.0157 0.11504,0.0104 0.34511,0.0471 z"
         style="font-size:10.70881367px;fill:#727272;fill-opacity:1;stroke-width:0.26458332"
         id="path1675" />
      <path
         d="m 467.66362,-136.75587 q 0,1.4275 -0.73205,2.25366 -0.73205,0.82617 -1.96084,0.82617 -1.23925,0 -1.9713,-0.82617 -0.72682,-0.82616 -0.72682,-2.25366 0,-1.42749 0.72682,-2.25366 0.73205,-0.8314 1.9713,-0.8314 1.22879,0 1.96084,0.8314 0.73205,0.82617 0.73205,2.25366 z m -1.01441,0 q 0,-1.13467 -0.44446,-1.68371 -0.44445,-0.55426 -1.23402,-0.55426 -0.80002,0 -1.24448,0.55426 -0.43923,0.54904 -0.43923,1.68371 0,1.09807 0.44446,1.66803 0.44445,0.56472 1.23925,0.56472 0.78434,0 1.22879,-0.5595 0.44969,-0.56472 0.44969,-1.67325 z"
         style="font-size:10.70881367px;fill:#727272;fill-opacity:1;stroke-width:0.26458332"
         id="path1677" />
      <path
         d="m 474.16839,-136.75587 q 0,1.4275 -0.73205,2.25366 -0.73205,0.82617 -1.96084,0.82617 -1.23925,0 -1.9713,-0.82617 -0.72682,-0.82616 -0.72682,-2.25366 0,-1.42749 0.72682,-2.25366 0.73205,-0.8314 1.9713,-0.8314 1.22879,0 1.96084,0.8314 0.73205,0.82617 0.73205,2.25366 z m -1.01441,0 q 0,-1.13467 -0.44446,-1.68371 -0.44446,-0.55426 -1.23402,-0.55426 -0.80003,0 -1.24448,0.55426 -0.43923,0.54904 -0.43923,1.68371 0,1.09807 0.44446,1.66803 0.44445,0.56472 1.23925,0.56472 0.78433,0 1.22879,-0.5595 0.44969,-0.56472 0.44969,-1.67325 z"
         style="font-size:10.70881367px;fill:#727272;fill-opacity:1;stroke-width:0.26458332"
         id="path1679" />
      <path
         d="m 484.21836,-133.83813 h -0.98304 v -3.32559 q 0,-0.37649 -0.0366,-0.72682 -0.0314,-0.35034 -0.14118,-0.5595 -0.12026,-0.22484 -0.34511,-0.33988 -0.22484,-0.11503 -0.64838,-0.11503 -0.41309,0 -0.82617,0.20916 -0.41309,0.20392 -0.82617,0.52289 0.0157,0.12026 0.0261,0.28236 0.0104,0.15687 0.0104,0.31373 v 3.73868 h -0.98303 v -3.32559 q 0,-0.38694 -0.0366,-0.73205 -0.0314,-0.35034 -0.14119,-0.55949 -0.12026,-0.22485 -0.3451,-0.33466 -0.22485,-0.11503 -0.64839,-0.11503 -0.40263,0 -0.81048,0.1987 -0.40263,0.1987 -0.80525,0.5072 v 4.36092 h -0.98304 v -5.8407 h 0.98304 v 0.64838 q 0.46014,-0.38171 0.91506,-0.59609 0.46014,-0.21439 0.9778,-0.21439 0.5961,0 1.00918,0.25099 0.41832,0.25099 0.62224,0.69545 0.5961,-0.50198 1.08762,-0.72159 0.49152,-0.22485 1.05101,-0.22485 0.96212,0 1.41704,0.58564 0.46014,0.58041 0.46014,1.62619 z"
         style="font-size:10.70881367px;fill:#727272;fill-opacity:1;stroke-width:0.26458332"
         id="path1681" />
      <path
         d="m 490.2839,-135.52184 q 0,0.80002 -0.66408,1.31245 -0.65884,0.51244 -1.80397,0.51244 -0.64839,0 -1.19219,-0.15164 -0.53858,-0.15687 -0.9046,-0.33988 v -1.1033 h 0.0523 q 0.46538,0.35033 1.03533,0.55949 0.56995,0.20393 1.09284,0.20393 0.64839,0 1.01441,-0.20916 0.36603,-0.20915 0.36603,-0.65884 0,-0.34511 -0.1987,-0.52289 -0.1987,-0.17779 -0.76342,-0.30328 -0.20916,-0.0471 -0.54904,-0.10981 -0.33465,-0.0627 -0.61178,-0.13595 -0.76865,-0.20393 -1.09285,-0.59609 -0.31896,-0.3974 -0.31896,-0.97258 0,-0.3608 0.14641,-0.67976 0.15164,-0.31896 0.45492,-0.56995 0.29281,-0.24576 0.7425,-0.38694 0.45492,-0.14641 1.01441,-0.14641 0.52289,0 1.05624,0.13072 0.53858,0.1255 0.89414,0.30851 v 1.05101 h -0.0523 q -0.37649,-0.27713 -0.91506,-0.46537 -0.53858,-0.19347 -1.05624,-0.19347 -0.53858,0 -0.90984,0.20915 -0.37125,0.20393 -0.37125,0.61179 0,0.36079 0.22484,0.5438 0.21962,0.18301 0.71114,0.29805 0.2719,0.0627 0.60655,0.12549 0.33988,0.0627 0.56472,0.11504 0.68499,0.15687 1.05624,0.53858 0.37126,0.38694 0.37126,1.02487 z"
         style="font-size:10.70881367px;fill:#727272;fill-opacity:1;stroke-width:0.26458332"
         id="path1683" />
    </g>
    <rect
       style="opacity:1;fill:#727272;fill-opacity:1;stroke:#d3ffff;stroke-width:0;stroke-miterlimit:4;stroke-dasharray:none;stroke-dashoffset:0;stroke-opacity:1;paint-order:fill markers stroke"
       id="rect2063"
       width="26.240572"
       height="61.605621"
       x="129.11966"
       y="-222.57196" />
    <rect
       style="opacity:1;fill:#727272;fill-opacity:1;stroke:#d3ffff;stroke-width:0;stroke-miterlimit:4;stroke-dasharray:none;stroke-dashoffset:0;stroke-opacity:1;paint-order:fill markers stroke"
       id="rect2065"
       width="41.860859"
       height="23.340029"
       x="135.1265"
       y="-184.25819" />
    <g
       id="g2127">
      <path
         inkscape:connector-curvature="0"
         id="path1830"
         d="m 128.93067,-200.23922 h 26.86476"
         style="fill:none;stroke:#c1c1c1;stroke-width:1.10000002;stroke-linecap:butt;stroke-linejoin:miter;stroke-miterlimit:4;stroke-dasharray:none;stroke-opacity:1" />
      <path
         style="fill:none;stroke:#c1c1c1;stroke-width:1.10000002;stroke-linecap:butt;stroke-linejoin:miter;stroke-miterlimit:4;stroke-dasharray:none;stroke-opacity:1"
         d="m 128.93067,-195.0571 h 26.86476"
         id="path1832"
         inkscape:connector-curvature="0" />
    </g>
    <path
       style="fill:none;stroke:#c1c1c1;stroke-width:1.10000002;stroke-linecap:butt;stroke-linejoin:miter;stroke-miterlimit:4;stroke-dasharray:none;stroke-opacity:1"
       d="m 128.93067,-205.78762 h 26.86476"
       id="path1836"
       inkscape:connector-curvature="0" />
    <path
       style="fill:none;stroke:#c1c1c1;stroke-width:1.10000002;stroke-linecap:butt;stroke-linejoin:miter;stroke-miterlimit:4;stroke-dasharray:none;stroke-opacity:1"
       d="m 128.93067,-211.07286 h 26.86476"
       id="path1838"
       inkscape:connector-curvature="0" />
    <path
       inkscape:connector-curvature="0"
       id="path1840"
       d="m 128.93067,-215.92472 h 26.86476"
       style="fill:none;stroke:#c1c1c1;stroke-width:1.10000002;stroke-linecap:butt;stroke-linejoin:miter;stroke-miterlimit:4;stroke-dasharray:none;stroke-opacity:1" />
    <path
       style="fill:none;stroke:#c1c1c1;stroke-width:1.10000002;stroke-linecap:butt;stroke-linejoin:miter;stroke-miterlimit:4;stroke-dasharray:none;stroke-opacity:1"
       d="m 128.93067,-220.77657 h 26.86476"
       id="path1842"
       inkscape:connector-curvature="0" />
    <path
       style="fill:none;stroke:#c1c1c1;stroke-width:1.10000002;stroke-linecap:butt;stroke-linejoin:miter;stroke-miterlimit:4;stroke-dasharray:none;stroke-opacity:1"
       d="m 171.54418,-184.49566 v 24.50881"
       id="path1834"
       inkscape:connector-curvature="0" />
    <path
       inkscape:connector-curvature="0"
       id="path1844"
       d="m 166.28248,-184.49566 v 24.50881"
       style="fill:none;stroke:#c1c1c1;stroke-width:1.10000002;stroke-linecap:butt;stroke-linejoin:miter;stroke-miterlimit:4;stroke-dasharray:none;stroke-opacity:1" />
    <path
       style="fill:none;stroke:#c1c1c1;stroke-width:1.10000002;stroke-linecap:butt;stroke-linejoin:miter;stroke-miterlimit:4;stroke-dasharray:none;stroke-opacity:1"
       d="m 160.76566,-184.49566 v 24.50881"
       id="path1846"
       inkscape:connector-curvature="0" />
    <path
       inkscape:connector-curvature="0"
       id="path1848"
       d="m 155.54177,-184.49566 v 24.50881"
       style="fill:none;stroke:#c1c1c1;stroke-width:1.10000002;stroke-linecap:butt;stroke-linejoin:miter;stroke-miterlimit:4;stroke-dasharray:none;stroke-opacity:1" />
    <path
       inkscape:connector-curvature="0"
       id="path2129"
       d="m 128.93067,-190.18505 h 26.86476"
       style="fill:none;stroke:#c1c1c1;stroke-width:1.10000002;stroke-linecap:butt;stroke-linejoin:miter;stroke-miterlimit:4;stroke-dasharray:none;stroke-opacity:1" />
    <path
       style="fill:none;stroke:#c1c1c1;stroke-width:1.10000002;stroke-linecap:butt;stroke-linejoin:miter;stroke-miterlimit:4;stroke-dasharray:none;stroke-opacity:1"
       d="m 128.93067,-184.81394 h 26.86476"
       id="path2131"
       inkscape:connector-curvature="0" />
  </g>
</svg>
